<svg width="245" height="99" viewBox="0 0 245 99" fill="none" xmlns="http://www.w3.org/2000/svg">
<g id="Asset 2" clip-path="url(#clip0_104_1337)">
<g id="Layer 2">
<g id="OBJECTS">
<path id="Vector" opacity="0.3" d="M245 88.5474C245 94.3194 190.155 99 122.498 99C54.8406 99 0 94.3194 0 88.5474C0 82.7753 54.8455 78.0947 122.498 78.0947C190.15 78.0947 245 82.7753 245 88.5474Z" fill="#1A1A1A"/>
<path id="Vector_2" d="M228.722 48.6887L184.39 41.0091L102.782 56.9732L35.9695 36.8792L15.2766 48.6887L17.6091 75.5676L62.8349 81.5216L176.165 81.6248L183.26 78.5962L220.177 80.9218L232.974 71.6786L228.722 48.6887Z" fill="#1A1A1A"/>
<path id="Vector_3" d="M187.817 29.106C187.817 29.106 149.098 4.15933 119.983 1.75513C119.983 1.75513 49.6649 -4.86749 18.4832 7.61076L19.1068 9.27256L23.4722 11.9767L4.36053 29.1355L5.6078 35.5811L4.36053 43.2657L4.88105 53.1431L4.36053 56.3684L1.24727 58.2416L0 63.8661C1.17186 67.8788 3.2312 71.5757 6.02519 74.6826C6.02519 74.6826 13.1896 77.5932 19.9416 78.0111L20.6782 78.0701C20.4099 76.6816 20.2734 75.2708 20.2706 73.8566C20.2792 70.6433 20.9908 67.4709 22.3553 64.5626C23.7199 61.6542 25.7043 59.0805 28.169 57.0225C30.6337 54.9644 33.5188 53.472 36.6213 52.6502C39.7239 51.8284 42.9687 51.6972 46.1274 52.2657C49.2861 52.8343 52.282 54.0888 54.9044 55.9411C57.5269 57.7934 59.7122 60.1984 61.3066 62.9871C62.901 65.7758 63.8659 68.8803 64.1333 72.0824C64.4007 75.2846 63.9642 78.5064 62.8545 81.5215L64.4111 81.6493H174.603H176.184V73.8812C176.141 70.9652 176.677 68.0696 177.761 65.3629C178.845 62.6563 180.457 60.1925 182.501 58.115C184.545 56.0375 186.981 54.3877 189.668 53.2616C192.355 52.1355 195.239 51.5556 198.151 51.5556C201.064 51.5556 203.948 52.1355 206.635 53.2616C209.321 54.3877 211.758 56.0375 213.802 58.115C215.846 60.1925 217.457 62.6563 218.542 65.3629C219.626 68.0696 220.162 70.9652 220.118 73.8812V80.9463H220.197L242.216 77.0966L245.02 66.0737V49.2049C245.02 49.2049 217.835 30.9104 187.817 29.106Z" fill="#004F9F"/>
<path id="Vector_4" opacity="0.2" d="M187.817 29.1062C187.817 29.1062 184.669 27.0806 179.499 24.1257L176.312 28.4031L183.26 34.0965C183.26 34.0965 225.27 35.2323 245 51.7273V49.2051C245 49.2051 217.835 30.9106 187.817 29.1062Z" fill="#1A1A1A"/>
<path id="Vector_5" d="M42.2304 54.1118C38.33 54.1118 34.5172 55.2698 31.2742 57.4394C28.0312 59.609 25.5035 62.6928 24.0109 66.3007C22.5183 69.9086 22.1278 73.8787 22.8887 77.7088C23.6496 81.5389 25.5278 85.0571 28.2858 87.8185C31.0438 90.5799 34.5577 92.4604 38.3831 93.2223C42.2085 93.9842 46.1737 93.5931 49.7771 92.0987C53.3806 90.6042 56.4605 88.0735 58.6275 84.8265C60.7944 81.5794 61.951 77.7619 61.951 73.8568C61.951 68.6201 59.8733 63.5979 56.1749 59.895C52.4766 56.1921 47.4606 54.1118 42.2304 54.1118ZM42.2304 85.3074C39.9684 85.3074 37.7573 84.6359 35.8766 83.3776C33.9958 82.1194 32.53 80.3311 31.6644 78.2387C30.7988 76.1464 30.5723 73.844 31.0136 71.6228C31.4548 69.4016 32.5441 67.3613 34.1435 65.7599C35.7429 64.1585 37.7807 63.0679 39.9992 62.6261C42.2177 62.1843 44.5172 62.411 46.607 63.2777C48.6967 64.1444 50.4829 65.612 51.7395 67.4951C52.9962 69.3781 53.667 71.592 53.667 73.8568C53.667 76.8937 52.462 79.8062 50.3173 81.9536C48.1725 84.101 45.2635 85.3074 42.2304 85.3074Z" fill="#333333"/>
<path id="Vector_6" d="M50.9562 73.8568C50.9562 75.5824 50.4453 77.2693 49.488 78.7042C48.5307 80.1391 47.17 81.2577 45.5779 81.9185C43.9858 82.5793 42.2338 82.7527 40.5433 82.4167C38.8528 82.0808 37.2997 81.2506 36.0803 80.0311C34.8609 78.8116 34.03 77.2576 33.6926 75.5654C33.3552 73.8731 33.5264 72.1188 34.1846 70.524C34.8428 68.9292 35.9584 67.5655 37.3905 66.6054C38.8226 65.6453 40.5068 65.1318 42.2303 65.1299C43.3757 65.1286 44.5102 65.3534 45.5688 65.7914C46.6274 66.2294 47.5895 66.872 48.3999 67.6825C49.2103 68.493 49.8532 69.4554 50.2918 70.5149C50.7305 71.5743 50.9562 72.7099 50.9562 73.8568Z" fill="#999999"/>
<path id="Vector_7" d="M42.1813 59.407C40.854 59.406 39.5325 59.5846 38.2529 59.938L42.2599 74.314L46.2571 59.9822C44.9321 59.6001 43.5601 59.4064 42.1813 59.407Z" fill="#CCCCCC"/>
<path id="Vector_8" d="M28.0782 69.7857C27.6657 71.0487 27.4262 72.3619 27.3662 73.6894L42.2647 74.3138L29.8804 66.0835C29.1082 67.2262 28.5015 68.4727 28.0782 69.7857Z" fill="#CCCCCC"/>
<path id="Vector_9" d="M33.5731 86.4235C34.6471 87.2053 35.8215 87.8387 37.0644 88.3065L42.2647 74.314L30.6169 83.5817C31.4665 84.6611 32.4614 85.6174 33.5731 86.4235Z" fill="#CCCCCC"/>
<path id="Vector_10" d="M47.4452 88.2623C49.9989 87.3338 52.247 85.7176 53.9418 83.5915L42.2646 74.314L47.4452 88.2623Z" fill="#CCCCCC"/>
<path id="Vector_11" d="M56.402 69.6334C55.9905 68.3707 55.4125 67.1686 54.6833 66.0591L42.2646 74.314L57.114 73.6896C57.0665 72.3109 56.8268 70.9457 56.402 69.6334Z" fill="#CCCCCC"/>
<path id="Vector_12" d="M57.0257 73.8568C57.0257 76.7843 56.1588 79.646 54.5345 82.0803C52.9103 84.5145 50.6017 86.412 47.9006 87.5327C45.1995 88.6535 42.2271 88.9472 39.3592 88.3768C36.4914 87.8064 33.8568 86.3975 31.7887 84.3281C29.7205 82.2587 28.3115 79.6219 27.7399 76.7509C27.1683 73.8799 27.4597 70.9036 28.5773 68.1984C29.6948 65.4932 31.5884 63.1805 34.0186 61.5527C36.4488 59.9248 39.3064 59.0549 42.2303 59.053C44.173 59.051 46.097 59.4326 47.8923 60.1757C49.6876 60.9189 51.3189 62.0091 52.6931 63.384C54.0672 64.7589 55.1571 66.3916 55.9006 68.1886C56.644 69.9856 57.0263 71.9117 57.0257 73.8568Z" stroke="white" stroke-width="3" stroke-miterlimit="10"/>
<path id="Vector_13" d="M46.473 73.8567C46.473 74.6945 46.225 75.5135 45.7604 76.2103C45.2957 76.907 44.6352 77.4502 43.8623 77.7713C43.0894 78.0923 42.2388 78.1768 41.418 78.0141C40.5972 77.8514 39.8429 77.4487 39.2506 76.857C38.6582 76.2653 38.2543 75.511 38.0899 74.6896C37.9254 73.8681 38.0079 73.0163 38.3267 72.2417C38.6456 71.4671 39.1866 70.8045 39.8814 70.3377C40.5762 69.8708 41.3936 69.6206 42.2304 69.6187C42.7871 69.6174 43.3385 69.726 43.8532 69.9384C44.3679 70.1508 44.8357 70.4628 45.2298 70.8565C45.6239 71.2502 45.9366 71.7178 46.1499 72.2326C46.3632 72.7475 46.473 73.2994 46.473 73.8567Z" fill="white"/>
<path id="Vector_14" d="M198.134 54.1118C194.234 54.1118 190.421 55.2698 187.178 57.4394C183.935 59.609 181.407 62.6928 179.915 66.3007C178.422 69.9086 178.032 73.8787 178.793 77.7088C179.553 81.5389 181.432 85.0571 184.19 87.8185C186.948 90.5799 190.461 92.4604 194.287 93.2223C198.112 93.9842 202.077 93.5931 205.681 92.0987C209.284 90.6042 212.364 88.0735 214.531 84.8265C216.698 81.5794 217.855 77.7619 217.855 73.8568C217.855 68.6201 215.777 63.5979 212.079 59.895C208.38 56.1921 203.364 54.1118 198.134 54.1118ZM198.134 85.3074C195.872 85.3084 193.66 84.6377 191.779 83.38C189.898 82.1224 188.431 80.3344 187.565 78.2421C186.698 76.1499 186.471 73.8474 186.912 71.6258C187.353 69.4043 188.441 67.3635 190.041 65.7616C191.64 64.1597 193.678 63.0687 195.896 62.6264C198.115 62.1842 200.415 62.4107 202.505 63.2772C204.595 64.1438 206.381 65.6114 207.638 67.4946C208.895 69.3777 209.566 71.5918 209.566 73.8568C209.566 76.8928 208.362 79.8046 206.218 81.9519C204.074 84.0991 201.167 85.3061 198.134 85.3074Z" fill="#333333"/>
<path id="Vector_15" d="M206.85 73.8568C206.85 75.5828 206.339 77.2701 205.381 78.7052C204.424 80.1403 203.062 81.2589 201.47 81.9194C199.877 82.5799 198.124 82.7527 196.434 82.416C194.743 82.0793 193.19 81.2481 191.971 80.0276C190.752 78.8072 189.922 77.2522 189.585 75.5593C189.249 73.8665 189.422 72.1118 190.081 70.5171C190.741 68.9225 191.858 67.5596 193.292 66.6006C194.725 65.6417 196.41 65.1299 198.134 65.1299C200.446 65.1299 202.663 66.0493 204.297 67.6859C205.932 69.3225 206.85 71.5423 206.85 73.8568Z" fill="#999999"/>
<path id="Vector_16" d="M198.075 59.407C196.748 59.407 195.427 59.5856 194.147 59.938L198.154 74.314L202.151 59.9822C200.826 59.6001 199.454 59.4064 198.075 59.407Z" fill="#CCCCCC"/>
<path id="Vector_17" d="M183.967 69.7857C183.559 71.0495 183.321 72.3624 183.26 73.6894L198.154 74.3138L185.774 66.0835C185.001 67.2261 184.392 68.4725 183.967 69.7857Z" fill="#CCCCCC"/>
<path id="Vector_18" d="M189.467 86.4235C190.539 87.2055 191.712 87.8389 192.954 88.3065L198.154 74.314L186.506 83.5817C187.356 84.6623 188.353 85.6188 189.467 86.4235Z" fill="#CCCCCC"/>
<path id="Vector_19" d="M203.339 88.2623C205.893 87.3338 208.141 85.7176 209.836 83.5915L198.154 74.314L203.339 88.2623Z" fill="#CCCCCC"/>
<path id="Vector_20" d="M212.291 69.6334C211.884 68.369 211.306 67.1664 210.572 66.0591L198.154 74.314L213.008 73.6896C212.959 72.3107 212.718 70.9455 212.291 69.6334Z" fill="#CCCCCC"/>
<path id="Vector_21" d="M212.915 73.8568C212.915 76.7849 212.048 79.6472 210.423 82.0818C208.798 84.5164 206.488 86.4138 203.786 87.5341C201.084 88.6545 198.111 88.9473 195.243 88.3757C192.375 87.8041 189.74 86.3937 187.673 84.3229C185.605 82.252 184.197 79.6138 183.627 76.7418C183.057 73.8698 183.351 70.8931 184.471 68.1882C185.59 65.4832 187.486 63.1715 189.918 61.5455C192.351 59.9194 195.21 59.052 198.134 59.053C200.076 59.053 201.998 59.4359 203.792 60.1799C205.585 60.924 207.215 62.0145 208.587 63.3892C209.96 64.7639 211.049 66.3959 211.791 68.192C212.534 69.988 212.915 71.9129 212.915 73.8568Z" stroke="white" stroke-width="3" stroke-miterlimit="10"/>
<path id="Vector_22" d="M202.367 73.8567C202.367 74.6949 202.119 75.5143 201.654 76.2113C201.189 76.9082 200.528 77.4514 199.754 77.7722C198.981 78.093 198.13 78.1769 197.308 78.0134C196.487 77.8498 195.733 77.4462 195.141 76.8535C194.549 76.2608 194.146 75.5056 193.983 74.6835C193.819 73.8614 193.903 73.0093 194.224 72.2349C194.544 71.4605 195.086 70.7986 195.783 70.3329C196.479 69.8672 197.297 69.6187 198.134 69.6187C199.257 69.6187 200.333 70.0652 201.127 70.86C201.921 71.6547 202.367 72.7327 202.367 73.8567Z" fill="white"/>
<path id="Vector_23" opacity="0.2" d="M61.3373 10.5017L46.4731 34.1012C46.4731 34.1012 49.5864 45.7092 66.3951 65.1543C66.3951 65.1543 72.4399 73.8123 86.3612 74.3384L165.42 76.7082C165.42 76.7082 174.073 48.787 163.834 36.3137L141.246 17.2718L61.3373 10.5017Z" fill="#1A1A1A"/>
<path id="Vector_24" d="M178.413 35.6549C178.413 35.6549 150.193 6.27846 97.9204 6.46037C97.9204 6.46037 49.9938 3.83001 34.8154 19.0812C34.8154 19.0812 35.6649 23.8159 44.332 27.2378C44.332 27.2378 167.792 39.3325 178.413 35.6549Z" fill="white"/>
<path id="Vector_25" d="M64.7157 29.1553L63.38 17.6997L69.2383 9.20386C66.1692 9.61685 63.0805 10.1429 60.0851 10.7968L49.5471 27.7393C53.122 28.0786 58.3664 28.5751 64.7157 29.1553Z" fill="#1A1A1A"/>
<path id="Vector_26" d="M101.157 32.3216C105.522 32.6805 109.946 33.0295 114.361 33.3688L106.936 6.73083C104.201 6.55875 101.392 6.46533 98.5098 6.46533L101.157 32.3216Z" fill="#1A1A1A"/>
<path id="Vector_27" d="M41.3759 22.6162C55.857 8.604 101.593 11.0229 101.593 11.0229C143.608 10.8804 169.358 30.0058 176.415 36.0483C177.093 35.9854 177.762 35.8536 178.413 35.6549C178.413 35.6549 150.193 6.27846 97.9204 6.46037C97.9204 6.46037 49.9938 3.83001 34.8154 19.0812C34.8154 19.0812 35.6649 23.8159 44.332 27.2378L45.1177 27.3115C41.7933 24.8778 41.3759 22.6162 41.3759 22.6162Z" fill="#1A1A1A"/>
<path id="Vector_28" d="M60.9395 28.8063L59.4664 16.2789L65.3099 7.80762C62.2359 8.22061 59.1521 8.74177 56.1567 9.40059L45.0442 27.3067C46.9888 27.4936 52.7782 28.054 60.9395 28.8063Z" fill="#3D3D3D"/>
<path id="Vector_29" opacity="0.5" d="M61.1801 8.4319L49.5962 27.7442L50.922 27.8671L62.4912 8.61873L62.7613 8.18115C62.2277 8.25982 61.7006 8.3434 61.1801 8.4319Z" fill="#1A1A1A"/>
<path id="Vector_30" d="M4.41952 43.0102H16.3422C25.4169 38.3492 26.1927 34.0374 26.1927 34.0374C23.9781 28.4964 8.25954 30.5958 8.25954 30.5958L4.3606 29.1208L5.60786 35.5665L4.41952 43.0102Z" fill="#FF213D"/>
<path id="Vector_31" d="M214.786 42.3267C214.786 42.3267 213.804 47.8676 224.867 53.5119C224.867 53.5119 241.209 54.3034 245 55.1933V51.7272C245 51.7272 226.866 40.8419 214.786 42.3267Z" fill="white"/>
<path id="Vector_32" opacity="0.6" d="M40.0256 31.8691H31.9134C30.2564 31.8691 28.9131 33.2141 28.9131 34.8732V38.89C28.9131 40.5491 30.2564 41.894 31.9134 41.894H40.0256C41.6826 41.894 43.0259 40.5491 43.0259 38.89V34.8732C43.0259 33.2141 41.6826 31.8691 40.0256 31.8691Z" stroke="#1A1A1A" stroke-miterlimit="10"/>
<path id="Vector_33" opacity="0.3" d="M23.4722 11.9769L6.93359 26.8249C8.70138 27.5821 11.8834 26.8249 11.8834 26.8249L32.1245 12.9995L18.4831 7.59131L19.1067 9.25311L23.4722 11.9769Z" fill="#1A1A1A"/>
<path id="Vector_34" opacity="0.3" d="M8.83891 34.3522L5.59307 35.5813L4.36053 43.2659L4.88105 53.1433L4.36053 56.3686L1.24727 58.2418L0 63.8663C1.17186 67.879 3.2312 71.5759 6.02519 74.6828C6.02519 74.6828 13.1896 77.5934 19.9416 78.0113L20.6782 78.0703C20.4099 76.6818 20.2734 75.271 20.2706 73.8568C20.2792 70.6435 20.9908 67.4712 22.3553 64.5628C23.7199 61.6544 25.7043 59.0807 28.169 57.0227C30.6337 54.9646 33.5188 53.4722 36.6213 52.6504C39.7239 51.8286 42.9687 51.6974 46.1274 52.2659C49.2861 52.8345 52.282 54.089 54.9044 55.9413C57.5269 57.7936 59.7122 60.1987 61.3066 62.9873C62.901 65.776 63.8659 68.8806 64.1333 72.0827C64.4007 75.2848 63.9642 78.5067 62.8545 81.5217L64.4111 81.6496H174.603H176.184V73.8814C176.141 70.9654 176.677 68.0698 177.761 65.3632C178.845 62.6565 180.457 60.1927 182.501 58.1152C184.545 56.0377 186.981 54.3879 189.668 53.2618C192.355 52.1357 195.239 51.5558 198.151 51.5558C201.064 51.5558 203.948 52.1357 206.635 53.2618C209.321 54.3879 211.758 56.0377 213.802 58.1152C215.846 60.1927 217.457 62.6565 218.542 65.3632C219.626 68.0698 220.162 70.9654 220.118 73.8814V80.9465H220.197L242.216 77.0968L245.02 66.0739V62.593C191.451 29.47 8.83891 34.3522 8.83891 34.3522Z" fill="#1A1A1A"/>
<path id="Vector_35" opacity="0.3" d="M19.9416 78.0113L20.6782 78.0703C20.4099 76.6818 20.2734 75.271 20.2706 73.8568C20.2792 70.6435 20.9908 67.4712 22.3553 64.5628C23.7199 61.6545 25.7043 59.0808 28.169 57.0227C30.6337 54.9647 33.5188 53.4722 36.6213 52.6504C39.7239 51.8286 42.9687 51.6974 46.1274 52.2659C49.2861 52.8345 52.282 54.089 54.9044 55.9413C57.5269 57.7936 59.7122 60.1987 61.3066 62.9873C62.901 65.776 63.8659 68.8806 64.1333 72.0827C64.4008 75.2848 63.9642 78.5067 62.8545 81.5217L64.4111 81.6496H174.603H176.184V73.8814C176.141 70.9654 176.677 68.0698 177.761 65.3632C178.845 62.6565 180.457 60.1927 182.501 58.1152C184.545 56.0377 186.981 54.3879 189.668 53.2618C192.355 52.1357 195.239 51.5558 198.151 51.5558C201.064 51.5558 203.948 52.1357 206.635 53.2618C209.321 54.3879 211.758 56.0377 213.802 58.1152C215.846 60.1927 217.457 62.6565 218.542 65.3632C219.626 68.0698 220.162 70.9654 220.118 73.8814V80.9465H220.197L242.216 77.0968L224.464 74.3386C224.464 74.1862 224.464 74.0338 224.464 73.8814C224.464 66.8909 221.691 60.1867 216.754 55.2437C211.817 50.3006 205.121 47.5237 198.139 47.5237C191.157 47.5237 184.461 50.3006 179.524 55.2437C174.587 60.1867 171.814 66.8909 171.814 73.8814C171.815 74.8258 171.866 75.7694 171.966 76.7084H165.425L71.2957 69.6187H65.8008C64.8563 64.352 62.1773 59.5537 58.1913 55.9893C54.2053 52.4249 49.1418 50.2998 43.8087 49.9529C38.4756 49.6061 33.18 51.0575 28.767 54.0756C24.3539 57.0938 21.0774 61.5048 19.4603 66.6049C9.82102 65.8182 0 63.8663 0 63.8663C1.17186 67.879 3.2312 71.576 6.02519 74.6828C6.02519 74.6828 13.1896 77.5934 19.9416 78.0113Z" fill="#1A1A1A"/>
<path id="Vector_36" d="M233.47 56.9731L232.979 59.4314C232.979 59.4314 241.906 61.4964 245.005 66.0737V59.0529L233.47 56.9731Z" fill="#01345B"/>
<path id="Vector_37" d="M230.794 65.1298C230.794 65.1298 229.016 71.0297 228.717 73.8567C228.717 73.8567 239.456 75.9364 242.589 75.5136L244.696 67.2292C244.696 67.2292 233.662 57.7501 230.794 65.1298Z" fill="#01345B"/>
<path id="Vector_38" opacity="0.3" d="M231.545 68.1142C233.819 62.2635 241.219 67.008 244.19 69.2253L244.681 67.2292C244.681 67.2292 233.642 57.7501 230.779 65.1298C230.779 65.1298 229.002 71.0297 228.702 73.8567L229.945 74.0878C230.593 71.2903 231.545 68.1142 231.545 68.1142Z" fill="#1A1A1A"/>
<path id="Vector_39" d="M94.1492 6.33252L97.012 31.9823C101.456 32.351 105.988 32.7197 110.526 33.0737L102.409 6.52427C100.935 6.48002 99.4378 6.45543 97.9204 6.46035C97.9204 6.46035 96.5259 6.39152 94.1492 6.33252Z" fill="#3D3D3D"/>
<path id="Vector_40" d="M148.788 35.6844C153.969 35.9597 158.727 36.176 162.857 36.2645L162.754 35.3992L153.021 18.5747C149.864 17.0555 146.422 15.5756 142.709 14.199L148.788 35.6844Z" fill="#3D3D3D"/>
<path id="Vector_41" opacity="0.5" d="M106.013 81.6494H107.211V74.9776C110.329 39.7799 105.497 33.2704 104.191 32.174L98.5195 6.39148V0.412935H98.4409L97.3164 0.36377V6.52915L103.067 32.6558L103.14 32.9065L103.342 33.0393C103.401 33.0786 109.332 37.4642 106.013 74.9235V81.6494Z" fill="#1A1A1A"/>
<path id="Vector_42" opacity="0.5" d="M158.143 36.1122L159.749 36.1712L159.331 35.7631L147.88 16.2492L146.358 15.615L158.143 36.1122Z" fill="#1A1A1A"/>
<path id="Vector_43" opacity="0.3" d="M20.6831 69.6185L26.1927 66.0835V58.8414L11.3924 56.2848V43.0101L13.5235 34.2537C10.5036 34.3077 8.85365 34.352 8.85365 34.352L5.6078 35.5811L4.36053 43.2657L4.88105 53.1431L4.36053 56.3684L1.24727 58.2416L0 63.8661C1.17186 67.8788 3.2312 71.5757 6.02519 74.6826C6.02519 74.6826 13.1896 77.5932 19.9416 78.0111L20.6782 78.0701C20.1314 75.2795 20.1314 72.4091 20.6782 69.6185H20.6831Z" fill="#1A1A1A"/>
<path id="Vector_44" opacity="0.2" d="M119.983 1.75513C119.983 1.75513 49.6649 -4.86749 18.4832 7.61076L32.1245 13.019C32.1245 13.019 70.2645 -5.74756 137.7 8.32366L146.368 10.5214L148.125 8.99231C138.766 5.35897 128.92 2.49753 119.983 1.75513Z" fill="#1A1A1A"/>
<path id="Vector_45" d="M137.691 8.30416C137.691 8.30416 166.908 20.7922 176.312 28.4031C176.312 28.4031 184.92 33.0148 187.817 29.1062C187.817 29.1062 165.813 14.9317 142.508 6.92261L137.691 8.30416Z" fill="white"/>
<path id="Vector_46" opacity="0.3" d="M57.8115 58.3401C60.7761 61.318 62.8266 65.0839 63.7203 69.1922C64.6141 73.3004 64.3137 77.5791 62.8546 81.5217L64.4112 81.6495H174.603H176.184C164.993 61.88 98.4067 58.5073 57.8115 58.3401Z" fill="#1A1A1A"/>
<path id="Vector_47" opacity="0.2" d="M121.486 41.3336C121.427 42.7643 118.829 43.8213 115.677 43.6935C112.524 43.5657 110.02 42.3021 110.079 40.8714C110.138 39.4407 112.735 38.3836 115.883 38.5115C119.031 38.6393 121.545 39.9028 121.486 41.3336Z" fill="#1A1A1A"/>
<path id="Vector_48" d="M122.11 42.2283L109.882 41.4023C109.696 41.3899 109.523 41.304 109.4 41.1634C109.277 41.0228 109.215 40.839 109.227 40.6525C109.239 40.4661 109.325 40.2922 109.466 40.1691C109.606 40.046 109.79 39.9838 109.976 39.9962L122.188 40.8074C122.374 40.8178 122.549 40.9019 122.673 41.0411C122.798 41.1804 122.862 41.3634 122.851 41.5498C122.841 41.7363 122.757 41.911 122.618 42.0354C122.479 42.1599 122.296 42.224 122.11 42.2136V42.2283Z" fill="#004F9F"/>
<path id="Vector_49" opacity="0.2" d="M64.8433 38.1182C64.8875 39.5539 62.388 40.7928 59.2207 40.8961C56.0535 40.9993 53.4754 39.9128 53.4312 38.4919C53.387 37.071 55.8865 35.8124 59.0538 35.714C62.2211 35.6157 64.8187 36.6875 64.8433 38.1182Z" fill="#1A1A1A"/>
<path id="Vector_50" d="M65.5307 38.9686L53.2544 39.0326C53.0682 39.0326 52.8896 38.9585 52.7579 38.8266C52.6262 38.6948 52.5522 38.5159 52.5522 38.3295C52.5522 38.143 52.6262 37.9642 52.7579 37.8323C52.8896 37.7005 53.0682 37.6264 53.2544 37.6264L65.5307 37.5625C65.717 37.5625 65.8956 37.6366 66.0273 37.7684C66.1589 37.9003 66.2329 38.0791 66.2329 38.2656C66.2329 38.452 66.1589 38.6309 66.0273 38.7627C65.8956 38.8946 65.717 38.9686 65.5307 38.9686Z" fill="#004F9F"/>
</g>
</g>
</g>
<defs>
<clipPath id="clip0_104_1337">
<rect width="245" height="99" fill="white"/>
</clipPath>
</defs>
</svg>
