<svg width="33" height="33" viewBox="0 0 33 33" fill="none" xmlns="http://www.w3.org/2000/svg">
<path d="M16.4951 0.605103C7.71413 0.605103 0.595581 7.72365 0.595581 16.5046C0.595581 24.3801 6.32767 30.9024 13.8434 32.1654V19.8217H10.008V15.3797H13.8434V12.1044C13.8434 8.30403 16.1645 6.23307 19.5552 6.23307C21.1791 6.23307 22.5747 6.35407 22.9798 6.40737V10.3797L20.6281 10.3809C18.7846 10.3809 18.4291 11.2568 18.4291 12.5425V15.3774H22.8281L22.2543 19.8194H18.4291V32.2716C26.2957 31.3141 32.3944 24.6257 32.3944 16.5001C32.3944 7.72365 25.2759 0.605103 16.4951 0.605103Z" fill="#1A73E8"/>
</svg>
