<svg width="24" height="24" viewBox="0 0 24 24" fill="none" xmlns="http://www.w3.org/2000/svg">
<g id="healthicons:contact-support-outline">
<g id="Group">
<path id="Vector" fill-rule="evenodd" clip-rule="evenodd" d="M12.4 16.5H13.75C17.202 16.5 20 13.702 20 10.25C20 6.798 17.202 4 13.75 4H10.25C6.798 4 4 6.798 4 10.25C4 14.28 6.298 16.69 8.715 18.143C9.928 18.872 11.15 19.343 12.073 19.6315C12.187 19.667 12.2965 19.7 12.4 19.73V16.5ZM13.4 21C13.4 21 13.018 20.9355 12.4 20.7685C9.795 20.0625 3 17.525 3 10.25C3 6.246 6.246 3 10.25 3H13.75C17.754 3 21 6.246 21 10.25C21 14.254 17.754 17.5 13.75 17.5H13.4V21Z" fill="white"/>
<path id="Vector_2" fill-rule="evenodd" clip-rule="evenodd" d="M13.8456 6.24105C14.3606 6.58305 14.7486 7.13755 14.7486 7.88105C14.7486 8.67005 14.4306 9.25004 13.9151 9.60504C13.7115 9.74283 13.4869 9.84653 13.2501 9.91205V10.678C13.2501 10.877 13.171 11.0677 13.0304 11.2084C12.8897 11.349 12.699 11.428 12.5001 11.428C12.3011 11.428 12.1104 11.349 11.9697 11.2084C11.8291 11.0677 11.7501 10.877 11.7501 10.678V9.27955C11.75 9.08926 11.8223 8.90607 11.9523 8.76709C12.0823 8.62811 12.2602 8.54373 12.4501 8.53105C12.7271 8.51255 12.9371 8.45755 13.0636 8.37005C13.1148 8.33608 13.1562 8.28916 13.1836 8.23405C13.2136 8.17405 13.2486 8.06705 13.2486 7.88055C13.2486 7.72405 13.1876 7.60455 13.0151 7.48955C12.8191 7.35955 12.5041 7.26355 12.1256 7.25155C11.7516 7.23955 11.3881 7.31255 11.1206 7.44205C10.8526 7.57205 10.7541 7.71805 10.7266 7.82555C10.7021 7.92095 10.659 8.0106 10.5999 8.08937C10.5407 8.16814 10.4667 8.23449 10.3819 8.28463C10.2971 8.33478 10.2033 8.36773 10.1058 8.38161C10.0083 8.3955 9.90896 8.39004 9.81356 8.36555C9.71815 8.34105 9.6285 8.29801 9.54973 8.23887C9.47096 8.17974 9.40461 8.10566 9.35447 8.02088C9.30432 7.9361 9.27137 7.84228 9.25749 7.74476C9.2436 7.64725 9.24907 7.54795 9.27356 7.45255C9.44606 6.78205 9.94756 6.34405 10.4666 6.09255C10.9866 5.84005 11.5981 5.73355 12.1731 5.75205C12.7446 5.77005 13.3546 5.91405 13.8456 6.24105Z" fill="white"/>
<path id="Vector_3" d="M13.5 13.5C13.5 13.7652 13.3946 14.0196 13.2071 14.2071C13.0196 14.3946 12.7652 14.5 12.5 14.5C12.2348 14.5 11.9804 14.3946 11.7929 14.2071C11.6054 14.0196 11.5 13.7652 11.5 13.5C11.5 13.2348 11.6054 12.9804 11.7929 12.7929C11.9804 12.6054 12.2348 12.5 12.5 12.5C12.7652 12.5 13.0196 12.6054 13.2071 12.7929C13.3946 12.9804 13.5 13.2348 13.5 13.5Z" fill="white"/>
</g>
</g>
</svg>
