<svg width="251" height="251" viewBox="0 0 251 251" fill="none" xmlns="http://www.w3.org/2000/svg">
<g id="Layer 2">
<g id="Background Complete">
<path id="Vector" d="M220.596 17.1682H157.128C157.128 17.1682 163.419 0 173.101 0C182.783 0 185.826 11.8493 185.826 11.8493C185.826 11.8493 192.359 5.41205 197.723 5.41205C203.087 5.41205 207.76 13.9185 207.76 13.9185C207.76 13.9185 215.345 9.32041 220.596 17.1682Z" fill="#1C2A3D"/>
<path id="Vector_2" opacity="0.5" d="M250.184 35.4855H220.521C220.521 35.4855 227.148 25.8979 232.344 25.8979C237.54 25.8979 239.133 32.3104 239.133 32.3104C239.133 32.3104 242.823 29.3216 246.232 29.856C249.642 30.3904 250.184 35.4855 250.184 35.4855Z" fill="#1C2A3D"/>
<path id="Vector_3" opacity="0.5" d="M190.026 71.1578H160.364C160.364 71.1578 166.99 61.5702 172.186 61.5702C177.382 61.5702 178.95 67.9578 178.95 67.9578C178.95 67.9578 182.633 64.9752 186.05 65.5096C189.466 66.044 190.026 71.1578 190.026 71.1578Z" fill="#1C2A3D"/>
<path id="Vector_4" d="M57.7749 78.5271H0C0 78.5271 7.91488 60.8929 16.3773 59.7868C24.8398 58.6808 28.8906 72.8913 28.8906 72.8913C28.8906 72.8913 34.3476 67.8707 38.641 67.8707C42.9345 67.8707 46.2448 74.482 46.2448 74.482C46.2448 74.482 54.8317 69.9523 57.7749 78.5271Z" fill="#1C2A3D"/>
<path id="Vector_5" opacity="0.5" d="M84.164 26.7184H45.1372C45.1372 26.7184 51.8387 13.9059 59.1127 13.7195C66.3867 13.5331 70.2072 23.3941 70.2072 23.3941C70.2072 23.3941 81.5133 14.3285 84.164 26.7184Z" fill="#1C2A3D"/>
<path id="Vector_6" d="M146.873 87.4873H123.676V208.926H146.873V87.4873Z" fill="#1C2A3D"/>
<path id="Vector_7" d="M131.79 91.433H127.279V96.0683H131.79V91.433Z" fill="#1C2A3D"/>
<path id="Vector_8" d="M137.559 91.433H133.047V96.0683H137.559V91.433Z" fill="#1C2A3D"/>
<path id="Vector_9" d="M131.79 99.3053H127.279V103.941H131.79V99.3053Z" fill="#1C2A3D"/>
<path id="Vector_10" d="M137.559 99.3053H133.047V103.941H137.559V99.3053Z" fill="#1C2A3D"/>
<path id="Vector_11" d="M131.79 107.179H127.279V111.815H131.79V107.179Z" fill="#1C2A3D"/>
<path id="Vector_12" d="M137.559 107.179H133.047V111.815H137.559V107.179Z" fill="#1C2A3D"/>
<path id="Vector_13" d="M131.79 115.052H127.279V119.687H131.79V115.052Z" fill="#1C2A3D"/>
<path id="Vector_14" d="M137.559 115.052H133.047V119.687H137.559V115.052Z" fill="#1C2A3D"/>
<path id="Vector_15" d="M131.79 122.924H127.279V127.559H131.79V122.924Z" fill="#1C2A3D"/>
<path id="Vector_16" d="M137.559 122.924H133.047V127.559H137.559V122.924Z" fill="#1C2A3D"/>
<path id="Vector_17" d="M131.79 130.796H127.279V135.432H131.79V130.796Z" fill="#1C2A3D"/>
<path id="Vector_18" d="M137.559 130.796H133.047V135.432H137.559V130.796Z" fill="#1C2A3D"/>
<path id="Vector_19" d="M131.79 138.669H127.279V143.304H131.79V138.669Z" fill="#1C2A3D"/>
<path id="Vector_20" d="M137.559 138.669H133.047V143.304H137.559V138.669Z" fill="#1C2A3D"/>
<path id="Vector_21" d="M131.79 146.541H127.279V151.176H131.79V146.541Z" fill="#1C2A3D"/>
<path id="Vector_22" d="M137.559 146.541H133.047V151.176H137.559V146.541Z" fill="#1C2A3D"/>
<path id="Vector_23" d="M131.79 154.415H127.279V159.05H131.79V154.415Z" fill="#1C2A3D"/>
<path id="Vector_24" d="M137.559 154.415H133.047V159.05H137.559V154.415Z" fill="#1C2A3D"/>
<path id="Vector_25" d="M131.79 162.287H127.279V166.923H131.79V162.287Z" fill="#1C2A3D"/>
<path id="Vector_26" d="M137.559 162.287H133.047V166.923H137.559V162.287Z" fill="#1C2A3D"/>
<path id="Vector_27" d="M131.79 170.16H127.279V174.795H131.79V170.16Z" fill="#1C2A3D"/>
<path id="Vector_28" d="M137.559 170.16H133.047V174.795H137.559V170.16Z" fill="#1C2A3D"/>
<path id="Vector_29" d="M131.79 178.032H127.279V182.667H131.79V178.032Z" fill="#1C2A3D"/>
<path id="Vector_30" d="M137.559 178.032H133.047V182.667H137.559V178.032Z" fill="#1C2A3D"/>
<path id="Vector_31" d="M131.79 185.904H127.279V190.54H131.79V185.904Z" fill="#1C2A3D"/>
<path id="Vector_32" d="M137.559 185.904H133.047V190.54H137.559V185.904Z" fill="#1C2A3D"/>
<path id="Vector_33" d="M131.79 193.777H127.279V198.412H131.79V193.777Z" fill="#1C2A3D"/>
<path id="Vector_34" d="M138.766 198.407H143.277V193.772H138.766V198.407Z" fill="#1C2A3D"/>
<path id="Vector_35" d="M138.766 190.535H143.277V185.899H138.766V190.535Z" fill="#1C2A3D"/>
<path id="Vector_36" d="M138.766 182.661H143.277V178.025H138.766V182.661Z" fill="#1C2A3D"/>
<path id="Vector_37" d="M138.766 174.795H143.277V170.159H138.766V174.795Z" fill="#1C2A3D"/>
<path id="Vector_38" d="M138.766 166.922H143.277V162.287H138.766V166.922Z" fill="#1C2A3D"/>
<path id="Vector_39" d="M138.766 159.05H143.277V154.415H138.766V159.05Z" fill="#1C2A3D"/>
<path id="Vector_40" d="M138.766 151.178H143.277V146.542H138.766V151.178Z" fill="#1C2A3D"/>
<path id="Vector_41" d="M138.766 143.304H143.277V138.668H138.766V143.304Z" fill="#1C2A3D"/>
<path id="Vector_42" d="M138.766 135.431H143.277V130.796H138.766V135.431Z" fill="#1C2A3D"/>
<path id="Vector_43" d="M138.766 127.559H143.277V122.924H138.766V127.559Z" fill="#1C2A3D"/>
<path id="Vector_44" d="M138.766 119.687H143.277V115.051H138.766V119.687Z" fill="#1C2A3D"/>
<path id="Vector_45" d="M138.766 111.814H143.277V107.179H138.766V111.814Z" fill="#1C2A3D"/>
<path id="Vector_46" d="M138.766 103.942H143.277V99.3066H138.766V103.942Z" fill="#1C2A3D"/>
<path id="Vector_47" d="M138.766 96.0679H143.277V91.4325H138.766V96.0679Z" fill="#1C2A3D"/>
<path id="Vector_48" d="M137.559 193.777H133.047V198.412H137.559V193.777Z" fill="#1C2A3D"/>
<path id="Vector_49" d="M165.173 87.4873H146.88V208.926H165.173V87.4873Z" fill="#A6A6A6"/>
<path id="Vector_50" d="M159.555 198.407H163.282V193.772H159.555V198.407Z" fill="#C7C7C7"/>
<path id="Vector_51" d="M154.8 198.407H158.521V193.772H154.8V198.407Z" fill="#C7C7C7"/>
<path id="Vector_52" d="M159.555 190.535H163.282V185.899H159.555V190.535Z" fill="#C7C7C7"/>
<path id="Vector_53" d="M154.8 190.535H158.521V185.899H154.8V190.535Z" fill="#C7C7C7"/>
<path id="Vector_54" d="M159.555 182.661H163.282V178.025H159.555V182.661Z" fill="#C7C7C7"/>
<path id="Vector_55" d="M154.8 182.661H158.521V178.025H154.8V182.661Z" fill="#C7C7C7"/>
<path id="Vector_56" d="M159.555 174.795H163.282V170.159H159.555V174.795Z" fill="#C7C7C7"/>
<path id="Vector_57" d="M154.8 174.795H158.521V170.159H154.8V174.795Z" fill="#C7C7C7"/>
<path id="Vector_58" d="M159.555 166.922H163.282V162.287H159.555V166.922Z" fill="#C7C7C7"/>
<path id="Vector_59" d="M154.8 166.922H158.521V162.287H154.8V166.922Z" fill="#C7C7C7"/>
<path id="Vector_60" d="M159.555 159.05H163.282V154.415H159.555V159.05Z" fill="#C7C7C7"/>
<path id="Vector_61" d="M154.8 159.05H158.521V154.415H154.8V159.05Z" fill="#C7C7C7"/>
<path id="Vector_62" d="M159.555 151.178H163.282V146.542H159.555V151.178Z" fill="#C7C7C7"/>
<path id="Vector_63" d="M154.8 151.178H158.521V146.542H154.8V151.178Z" fill="#C7C7C7"/>
<path id="Vector_64" d="M159.555 143.304H163.282V138.668H159.555V143.304Z" fill="#C7C7C7"/>
<path id="Vector_65" d="M154.8 143.304H158.521V138.668H154.8V143.304Z" fill="#C7C7C7"/>
<path id="Vector_66" d="M159.555 135.431H163.282V130.796H159.555V135.431Z" fill="#C7C7C7"/>
<path id="Vector_67" d="M154.8 135.431H158.521V130.796H154.8V135.431Z" fill="#C7C7C7"/>
<path id="Vector_68" d="M159.555 127.559H163.282V122.924H159.555V127.559Z" fill="#C7C7C7"/>
<path id="Vector_69" d="M154.8 127.559H158.521V122.924H154.8V127.559Z" fill="#C7C7C7"/>
<path id="Vector_70" d="M159.555 119.687H163.282V115.051H159.555V119.687Z" fill="#C7C7C7"/>
<path id="Vector_71" d="M154.8 119.687H158.521V115.051H154.8V119.687Z" fill="#C7C7C7"/>
<path id="Vector_72" d="M159.555 111.814H163.282V107.179H159.555V111.814Z" fill="#C7C7C7"/>
<path id="Vector_73" d="M154.8 111.814H158.521V107.179H154.8V111.814Z" fill="#C7C7C7"/>
<path id="Vector_74" d="M159.555 103.942H163.282V99.3066H159.555V103.942Z" fill="#C7C7C7"/>
<path id="Vector_75" d="M154.8 103.942H158.521V99.3066H154.8V103.942Z" fill="#C7C7C7"/>
<path id="Vector_76" d="M159.555 96.0679H163.282V91.4325H159.555V96.0679Z" fill="#C7C7C7"/>
<path id="Vector_77" d="M153.793 91.433H150.072V96.0683H153.793V91.433Z" fill="#C7C7C7"/>
<path id="Vector_78" d="M153.793 99.3053H150.072V103.941H153.793V99.3053Z" fill="#C7C7C7"/>
<path id="Vector_79" d="M153.793 107.179H150.072V111.815H153.793V107.179Z" fill="#C7C7C7"/>
<path id="Vector_80" d="M153.793 115.052H150.072V119.687H153.793V115.052Z" fill="#C7C7C7"/>
<path id="Vector_81" d="M153.793 122.924H150.072V127.559H153.793V122.924Z" fill="#C7C7C7"/>
<path id="Vector_82" d="M153.793 130.796H150.072V135.432H153.793V130.796Z" fill="#C7C7C7"/>
<path id="Vector_83" d="M153.793 138.669H150.072V143.304H153.793V138.669Z" fill="#C7C7C7"/>
<path id="Vector_84" d="M153.793 146.541H150.072V151.176H153.793V146.541Z" fill="#C7C7C7"/>
<path id="Vector_85" d="M153.793 154.415H150.072V159.05H153.793V154.415Z" fill="#C7C7C7"/>
<path id="Vector_86" d="M153.793 162.287H150.072V166.923H153.793V162.287Z" fill="#C7C7C7"/>
<path id="Vector_87" d="M153.793 170.16H150.072V174.795H153.793V170.16Z" fill="#C7C7C7"/>
<path id="Vector_88" d="M153.793 178.032H150.072V182.667H153.793V178.032Z" fill="#C7C7C7"/>
<path id="Vector_89" d="M153.793 185.904H150.072V190.54H153.793V185.904Z" fill="#C7C7C7"/>
<path id="Vector_90" d="M153.793 193.777H150.072V198.412H153.793V193.777Z" fill="#C7C7C7"/>
<path id="Vector_91" d="M154.8 96.0679H158.521V91.4325H154.8V96.0679Z" fill="#C7C7C7"/>
<path id="Vector_92" d="M63.4684 84.8403H39.2695V208.926H63.4684V84.8403Z" fill="#1C2A3D"/>
<path id="Vector_93" d="M63.4684 82.3668H38.6846V84.8398H63.4684V82.3668Z" fill="#C7C7C7"/>
<path id="Vector_94" d="M43.9052 88.4821H41.4536V208.927H43.9052V88.4821Z" fill="white"/>
<path id="Vector_95" d="M48.2485 88.4821H45.7969V208.927H48.2485V88.4821Z" fill="white"/>
<path id="Vector_96" d="M52.5918 88.4821H50.1401V208.927H52.5918V88.4821Z" fill="white"/>
<path id="Vector_97" d="M56.935 88.4821H54.4834V208.927H56.935V88.4821Z" fill="white"/>
<path id="Vector_98" d="M61.2783 88.4821H58.8267V208.927H61.2783V88.4821Z" fill="white"/>
<path id="Vector_99" d="M43.9052 91.6017H41.4536V96.4794H43.9052V91.6017Z" fill="#1C2A3D"/>
<path id="Vector_100" d="M48.2485 91.6017H45.7969V96.4794H48.2485V91.6017Z" fill="#1C2A3D"/>
<path id="Vector_101" d="M52.5918 91.6017H50.1401V96.4794H52.5918V91.6017Z" fill="#1C2A3D"/>
<path id="Vector_102" d="M56.935 91.6017H54.4834V96.4794H56.935V91.6017Z" fill="#1C2A3D"/>
<path id="Vector_103" d="M61.2783 91.6017H58.8267V96.4794H61.2783V91.6017Z" fill="#1C2A3D"/>
<path id="Vector_104" d="M43.9052 99.5298H41.4536V104.407H43.9052V99.5298Z" fill="#1C2A3D"/>
<path id="Vector_105" d="M48.2485 99.5298H45.7969V104.407H48.2485V99.5298Z" fill="#1C2A3D"/>
<path id="Vector_106" d="M52.5918 99.5298H50.1401V104.407H52.5918V99.5298Z" fill="#1C2A3D"/>
<path id="Vector_107" d="M56.935 99.5298H54.4834V104.407H56.935V99.5298Z" fill="#1C2A3D"/>
<path id="Vector_108" d="M61.2783 99.5298H58.8267V104.407H61.2783V99.5298Z" fill="#1C2A3D"/>
<path id="Vector_109" d="M43.9052 107.458H41.4536V112.335H43.9052V107.458Z" fill="#1C2A3D"/>
<path id="Vector_110" d="M48.2485 107.458H45.7969V112.335H48.2485V107.458Z" fill="#1C2A3D"/>
<path id="Vector_111" d="M52.5918 107.458H50.1401V112.335H52.5918V107.458Z" fill="#1C2A3D"/>
<path id="Vector_112" d="M56.935 107.458H54.4834V112.335H56.935V107.458Z" fill="#1C2A3D"/>
<path id="Vector_113" d="M61.2783 107.458H58.8267V112.335H61.2783V107.458Z" fill="#1C2A3D"/>
<path id="Vector_114" d="M43.9052 115.386H41.4536V120.264H43.9052V115.386Z" fill="#1C2A3D"/>
<path id="Vector_115" d="M48.2485 115.386H45.7969V120.264H48.2485V115.386Z" fill="#1C2A3D"/>
<path id="Vector_116" d="M52.5918 115.386H50.1401V120.264H52.5918V115.386Z" fill="#1C2A3D"/>
<path id="Vector_117" d="M56.935 115.386H54.4834V120.264H56.935V115.386Z" fill="#1C2A3D"/>
<path id="Vector_118" d="M61.2783 115.386H58.8267V120.264H61.2783V115.386Z" fill="#1C2A3D"/>
<path id="Vector_119" d="M43.9052 123.316H41.4536V128.193H43.9052V123.316Z" fill="#1C2A3D"/>
<path id="Vector_120" d="M48.2485 123.316H45.7969V128.193H48.2485V123.316Z" fill="#1C2A3D"/>
<path id="Vector_121" d="M52.5918 123.316H50.1401V128.193H52.5918V123.316Z" fill="#1C2A3D"/>
<path id="Vector_122" d="M56.935 123.316H54.4834V128.193H56.935V123.316Z" fill="#1C2A3D"/>
<path id="Vector_123" d="M61.2783 123.316H58.8267V128.193H61.2783V123.316Z" fill="#1C2A3D"/>
<path id="Vector_124" d="M43.9052 131.237H41.4536V136.115H43.9052V131.237Z" fill="#1C2A3D"/>
<path id="Vector_125" d="M48.2485 131.237H45.7969V136.115H48.2485V131.237Z" fill="#1C2A3D"/>
<path id="Vector_126" d="M52.5918 131.237H50.1401V136.115H52.5918V131.237Z" fill="#1C2A3D"/>
<path id="Vector_127" d="M56.935 131.237H54.4834V136.115H56.935V131.237Z" fill="#1C2A3D"/>
<path id="Vector_128" d="M61.2783 131.237H58.8267V136.115H61.2783V131.237Z" fill="#1C2A3D"/>
<path id="Vector_129" d="M43.9052 139.167H41.4536V144.045H43.9052V139.167Z" fill="#1C2A3D"/>
<path id="Vector_130" d="M48.2485 139.167H45.7969V144.045H48.2485V139.167Z" fill="#1C2A3D"/>
<path id="Vector_131" d="M52.5918 139.167H50.1401V144.045H52.5918V139.167Z" fill="#1C2A3D"/>
<path id="Vector_132" d="M56.935 139.167H54.4834V144.045H56.935V139.167Z" fill="#1C2A3D"/>
<path id="Vector_133" d="M61.2783 139.167H58.8267V144.045H61.2783V139.167Z" fill="#1C2A3D"/>
<path id="Vector_134" d="M43.9052 147.095H41.4536V151.973H43.9052V147.095Z" fill="#1C2A3D"/>
<path id="Vector_135" d="M48.2485 147.095H45.7969V151.973H48.2485V147.095Z" fill="#1C2A3D"/>
<path id="Vector_136" d="M52.5918 147.095H50.1401V151.973H52.5918V147.095Z" fill="#1C2A3D"/>
<path id="Vector_137" d="M56.935 147.095H54.4834V151.973H56.935V147.095Z" fill="#1C2A3D"/>
<path id="Vector_138" d="M61.2783 147.095H58.8267V151.973H61.2783V147.095Z" fill="#1C2A3D"/>
<path id="Vector_139" d="M43.9052 155.023H41.4536V159.901H43.9052V155.023Z" fill="#1C2A3D"/>
<path id="Vector_140" d="M48.2485 155.023H45.7969V159.901H48.2485V155.023Z" fill="#1C2A3D"/>
<path id="Vector_141" d="M52.5918 155.023H50.1401V159.901H52.5918V155.023Z" fill="#1C2A3D"/>
<path id="Vector_142" d="M56.935 155.023H54.4834V159.901H56.935V155.023Z" fill="#1C2A3D"/>
<path id="Vector_143" d="M61.2783 155.023H58.8267V159.901H61.2783V155.023Z" fill="#1C2A3D"/>
<path id="Vector_144" d="M43.9052 162.951H41.4536V167.829H43.9052V162.951Z" fill="#1C2A3D"/>
<path id="Vector_145" d="M48.2485 162.951H45.7969V167.829H48.2485V162.951Z" fill="#1C2A3D"/>
<path id="Vector_146" d="M52.5918 162.951H50.1401V167.829H52.5918V162.951Z" fill="#1C2A3D"/>
<path id="Vector_147" d="M56.935 162.951H54.4834V167.829H56.935V162.951Z" fill="#1C2A3D"/>
<path id="Vector_148" d="M61.2783 162.951H58.8267V167.829H61.2783V162.951Z" fill="#1C2A3D"/>
<path id="Vector_149" d="M43.9052 170.881H41.4536V175.758H43.9052V170.881Z" fill="#1C2A3D"/>
<path id="Vector_150" d="M48.2485 170.881H45.7969V175.758H48.2485V170.881Z" fill="#1C2A3D"/>
<path id="Vector_151" d="M52.5918 170.881H50.1401V175.758H52.5918V170.881Z" fill="#1C2A3D"/>
<path id="Vector_152" d="M56.935 170.881H54.4834V175.758H56.935V170.881Z" fill="#1C2A3D"/>
<path id="Vector_153" d="M61.2783 170.881H58.8267V175.758H61.2783V170.881Z" fill="#1C2A3D"/>
<path id="Vector_154" d="M43.9052 178.802H41.4536V183.68H43.9052V178.802Z" fill="#1C2A3D"/>
<path id="Vector_155" d="M48.2485 178.802H45.7969V183.68H48.2485V178.802Z" fill="#1C2A3D"/>
<path id="Vector_156" d="M52.5918 178.802H50.1401V183.68H52.5918V178.802Z" fill="#1C2A3D"/>
<path id="Vector_157" d="M56.935 178.802H54.4834V183.68H56.935V178.802Z" fill="#1C2A3D"/>
<path id="Vector_158" d="M61.2783 178.802H58.8267V183.68H61.2783V178.802Z" fill="#1C2A3D"/>
<path id="Vector_159" d="M43.9052 186.73H41.4536V191.608H43.9052V186.73Z" fill="#1C2A3D"/>
<path id="Vector_160" d="M48.2485 186.73H45.7969V191.608H48.2485V186.73Z" fill="#1C2A3D"/>
<path id="Vector_161" d="M52.5918 186.73H50.1401V191.608H52.5918V186.73Z" fill="#1C2A3D"/>
<path id="Vector_162" d="M56.935 186.73H54.4834V191.608H56.935V186.73Z" fill="#1C2A3D"/>
<path id="Vector_163" d="M61.2783 186.73H58.8267V191.608H61.2783V186.73Z" fill="#1C2A3D"/>
<path id="Vector_164" d="M43.9052 194.66H41.4536V208.927H43.9052V194.66Z" fill="#1C2A3D"/>
<path id="Vector_165" d="M48.2485 194.66H45.7969V208.927H48.2485V194.66Z" fill="#1C2A3D"/>
<path id="Vector_166" d="M52.5918 194.66H50.1401V208.927H52.5918V194.66Z" fill="#1C2A3D"/>
<path id="Vector_167" d="M56.935 194.66H54.4834V208.927H56.935V194.66Z" fill="#1C2A3D"/>
<path id="Vector_168" d="M61.2783 194.66H58.8267V208.927H61.2783V194.66Z" fill="#1C2A3D"/>
<path id="Vector_169" d="M79.0056 84.8403H63.4683V208.926H79.0056V84.8403Z" fill="#1C2A3D"/>
<path id="Vector_170" d="M79.6776 82.3668H63.4683V84.8398H79.6776V82.3668Z" fill="#C7C7C7"/>
<path id="Vector_171" d="M68.1103 88.4821H65.6587V208.927H68.1103V88.4821Z" fill="#C7C7C7"/>
<path id="Vector_172" d="M72.4536 88.4821H70.002V208.927H72.4536V88.4821Z" fill="#C7C7C7"/>
<path id="Vector_173" d="M76.7968 88.4821H74.3452V208.927H76.7968V88.4821Z" fill="#C7C7C7"/>
<path id="Vector_174" d="M68.1103 91.6017H65.6587V96.4794H68.1103V91.6017Z" fill="#1C2A3D"/>
<path id="Vector_175" d="M72.4536 91.6017H70.002V96.4794H72.4536V91.6017Z" fill="#1C2A3D"/>
<path id="Vector_176" d="M76.7968 91.6017H74.3452V96.4794H76.7968V91.6017Z" fill="#1C2A3D"/>
<path id="Vector_177" d="M68.1103 99.5298H65.6587V104.407H68.1103V99.5298Z" fill="#1C2A3D"/>
<path id="Vector_178" d="M72.4536 99.5298H70.002V104.407H72.4536V99.5298Z" fill="#1C2A3D"/>
<path id="Vector_179" d="M76.7968 99.5298H74.3452V104.407H76.7968V99.5298Z" fill="#1C2A3D"/>
<path id="Vector_180" d="M68.1103 107.458H65.6587V112.335H68.1103V107.458Z" fill="#1C2A3D"/>
<path id="Vector_181" d="M72.4536 107.458H70.002V112.335H72.4536V107.458Z" fill="#1C2A3D"/>
<path id="Vector_182" d="M76.7968 107.458H74.3452V112.335H76.7968V107.458Z" fill="#1C2A3D"/>
<path id="Vector_183" d="M68.1103 115.386H65.6587V120.264H68.1103V115.386Z" fill="#1C2A3D"/>
<path id="Vector_184" d="M72.4536 115.386H70.002V120.264H72.4536V115.386Z" fill="#1C2A3D"/>
<path id="Vector_185" d="M76.7968 115.386H74.3452V120.264H76.7968V115.386Z" fill="#1C2A3D"/>
<path id="Vector_186" d="M68.1103 123.316H65.6587V128.193H68.1103V123.316Z" fill="#1C2A3D"/>
<path id="Vector_187" d="M72.4536 123.316H70.002V128.193H72.4536V123.316Z" fill="#1C2A3D"/>
<path id="Vector_188" d="M76.7968 123.316H74.3452V128.193H76.7968V123.316Z" fill="#1C2A3D"/>
<path id="Vector_189" d="M68.1103 131.237H65.6587V136.115H68.1103V131.237Z" fill="#1C2A3D"/>
<path id="Vector_190" d="M72.4536 131.237H70.002V136.115H72.4536V131.237Z" fill="#1C2A3D"/>
<path id="Vector_191" d="M76.7968 131.237H74.3452V136.115H76.7968V131.237Z" fill="#1C2A3D"/>
<path id="Vector_192" d="M68.1103 139.167H65.6587V144.045H68.1103V139.167Z" fill="#1C2A3D"/>
<path id="Vector_193" d="M72.4536 139.167H70.002V144.045H72.4536V139.167Z" fill="#1C2A3D"/>
<path id="Vector_194" d="M76.7968 139.167H74.3452V144.045H76.7968V139.167Z" fill="#1C2A3D"/>
<path id="Vector_195" d="M68.1103 147.095H65.6587V151.973H68.1103V147.095Z" fill="#1C2A3D"/>
<path id="Vector_196" d="M72.4536 147.095H70.002V151.973H72.4536V147.095Z" fill="#1C2A3D"/>
<path id="Vector_197" d="M76.7968 147.095H74.3452V151.973H76.7968V147.095Z" fill="#1C2A3D"/>
<path id="Vector_198" d="M68.1103 155.023H65.6587V159.901H68.1103V155.023Z" fill="#1C2A3D"/>
<path id="Vector_199" d="M72.4536 155.023H70.002V159.901H72.4536V155.023Z" fill="#1C2A3D"/>
<path id="Vector_200" d="M76.7968 155.023H74.3452V159.901H76.7968V155.023Z" fill="#1C2A3D"/>
<path id="Vector_201" d="M68.1103 162.951H65.6587V167.829H68.1103V162.951Z" fill="#1C2A3D"/>
<path id="Vector_202" d="M72.4536 162.951H70.002V167.829H72.4536V162.951Z" fill="#1C2A3D"/>
<path id="Vector_203" d="M76.7968 162.951H74.3452V167.829H76.7968V162.951Z" fill="#1C2A3D"/>
<path id="Vector_204" d="M68.1103 170.881H65.6587V175.758H68.1103V170.881Z" fill="#1C2A3D"/>
<path id="Vector_205" d="M72.4536 170.881H70.002V175.758H72.4536V170.881Z" fill="#1C2A3D"/>
<path id="Vector_206" d="M76.7968 170.881H74.3452V175.758H76.7968V170.881Z" fill="#1C2A3D"/>
<path id="Vector_207" d="M68.1103 178.802H65.6587V183.68H68.1103V178.802Z" fill="#1C2A3D"/>
<path id="Vector_208" d="M72.4536 178.802H70.002V183.68H72.4536V178.802Z" fill="#1C2A3D"/>
<path id="Vector_209" d="M76.7968 178.802H74.3452V183.68H76.7968V178.802Z" fill="#1C2A3D"/>
<path id="Vector_210" d="M68.1103 186.73H65.6587V191.608H68.1103V186.73Z" fill="#1C2A3D"/>
<path id="Vector_211" d="M72.4536 186.73H70.002V191.608H72.4536V186.73Z" fill="#1C2A3D"/>
<path id="Vector_212" d="M76.7968 186.73H74.3452V191.608H76.7968V186.73Z" fill="#1C2A3D"/>
<path id="Vector_213" d="M68.1103 194.66H65.6587V208.927H68.1103V194.66Z" fill="#1C2A3D"/>
<path id="Vector_214" d="M72.4536 194.66H70.002V208.927H72.4536V194.66Z" fill="#1C2A3D"/>
<path id="Vector_215" d="M76.7968 194.66H74.3452V208.927H76.7968V194.66Z" fill="#1C2A3D"/>
<path id="Vector_216" d="M28.3494 122.004H5.39502V208.926H28.3494V122.004Z" fill="#1C2A3D"/>
<path id="Vector_217" d="M28.349 116.237H8.66138V122.004H28.349V116.237Z" fill="#C7C7C7"/>
<path id="Vector_218" d="M25.8355 125.012H7.91504V189.994H25.8355V125.012Z" fill="#1C2A3D"/>
<path id="Vector_219" d="M25.8355 131.213H7.91504V132.748H25.8355V131.213Z" fill="white"/>
<path id="Vector_220" d="M25.8355 137.575H7.91504V139.11H25.8355V137.575Z" fill="white"/>
<path id="Vector_221" d="M25.8355 143.932H7.91504V145.467H25.8355V143.932Z" fill="white"/>
<path id="Vector_222" d="M25.8355 150.294H7.91504V151.829H25.8355V150.294Z" fill="white"/>
<path id="Vector_223" d="M25.8355 156.658H7.91504V158.192H25.8355V156.658Z" fill="white"/>
<path id="Vector_224" d="M25.8355 163.013H7.91504V164.548H25.8355V163.013Z" fill="white"/>
<path id="Vector_225" d="M25.8355 169.377H7.91504V170.911H25.8355V169.377Z" fill="white"/>
<path id="Vector_226" d="M25.8355 175.74H7.91504V177.275H25.8355V175.74Z" fill="white"/>
<path id="Vector_227" d="M25.8355 182.096H7.91504V183.63H25.8355V182.096Z" fill="white"/>
<path id="Vector_228" d="M25.8355 188.459H7.91504V189.994H25.8355V188.459Z" fill="white"/>
<path id="Vector_229" d="M42.7228 122.004H28.3491V208.926H42.7228V122.004Z" fill="#1C2A3D"/>
<path id="Vector_230" d="M40.5699 116.237H28.3491V122.004H40.5699V116.237Z" fill="#A6A6A6"/>
<path id="Vector_231" d="M41.3852 125.012H30.3342V189.994H41.3852V125.012Z" fill="#C7C7C7"/>
<path id="Vector_232" d="M41.3852 131.213H30.3342V132.748H41.3852V131.213Z" fill="white"/>
<path id="Vector_233" d="M41.3852 137.575H30.3342V139.11H41.3852V137.575Z" fill="white"/>
<path id="Vector_234" d="M41.3852 143.932H30.3342V145.467H41.3852V143.932Z" fill="white"/>
<path id="Vector_235" d="M41.3852 150.294H30.3342V151.829H41.3852V150.294Z" fill="white"/>
<path id="Vector_236" d="M41.3852 156.658H30.3342V158.192H41.3852V156.658Z" fill="white"/>
<path id="Vector_237" d="M41.3852 163.013H30.3342V164.548H41.3852V163.013Z" fill="white"/>
<path id="Vector_238" d="M41.3852 169.377H30.3342V170.911H41.3852V169.377Z" fill="white"/>
<path id="Vector_239" d="M41.3852 175.74H30.3342V177.275H41.3852V175.74Z" fill="white"/>
<path id="Vector_240" d="M41.3852 182.096H30.3342V183.63H41.3852V182.096Z" fill="white"/>
<path id="Vector_241" d="M41.3852 188.459H30.3342V189.994H41.3852V188.459Z" fill="white"/>
<path id="Vector_242" d="M222.743 123.47H210.485V137.929H222.743V123.47Z" fill="#1C2A3D"/>
<path id="Vector_243" d="M230.515 123.47H222.743V138.463H230.515V123.47Z" fill="#C7C7C7"/>
<path id="Vector_244" d="M231.037 129.853H223.322V138.458H231.037V129.853Z" fill="#1C2A3D"/>
<path id="Vector_245" d="M235.841 129.853H231.031V138.458H235.841V129.853Z" fill="#C7C7C7"/>
<path id="Vector_246" d="M225.612 136.991H205.787V208.932H225.612V136.991Z" fill="#1C2A3D"/>
<path id="Vector_247" d="M214.287 140.079H208.052V142.62H214.287V140.079Z" fill="white"/>
<path id="Vector_248" d="M222.258 140.079H216.023V142.62H222.258V140.079Z" fill="white"/>
<path id="Vector_249" d="M214.287 144.399H208.052V146.94H214.287V144.399Z" fill="white"/>
<path id="Vector_250" d="M222.258 144.399H216.023V146.94H222.258V144.399Z" fill="white"/>
<path id="Vector_251" d="M214.287 148.717H208.052V151.258H214.287V148.717Z" fill="white"/>
<path id="Vector_252" d="M222.258 148.717H216.023V151.258H222.258V148.717Z" fill="white"/>
<path id="Vector_253" d="M214.287 153.035H208.052V155.576H214.287V153.035Z" fill="white"/>
<path id="Vector_254" d="M222.258 153.035H216.023V155.576H222.258V153.035Z" fill="white"/>
<path id="Vector_255" d="M214.287 157.353H208.052V159.895H214.287V157.353Z" fill="white"/>
<path id="Vector_256" d="M222.258 157.353H216.023V159.895H222.258V157.353Z" fill="white"/>
<path id="Vector_257" d="M214.287 161.671H208.052V164.213H214.287V161.671Z" fill="white"/>
<path id="Vector_258" d="M222.258 161.671H216.023V164.213H222.258V161.671Z" fill="white"/>
<path id="Vector_259" d="M214.287 165.99H208.052V168.531H214.287V165.99Z" fill="white"/>
<path id="Vector_260" d="M222.258 165.99H216.023V168.531H222.258V165.99Z" fill="white"/>
<path id="Vector_261" d="M214.287 170.309H208.052V172.851H214.287V170.309Z" fill="white"/>
<path id="Vector_262" d="M222.258 170.309H216.023V172.851H222.258V170.309Z" fill="white"/>
<path id="Vector_263" d="M214.287 174.627H208.052V177.169H214.287V174.627Z" fill="white"/>
<path id="Vector_264" d="M222.258 174.627H216.023V177.169H222.258V174.627Z" fill="white"/>
<path id="Vector_265" d="M214.287 178.946H208.052V181.487H214.287V178.946Z" fill="white"/>
<path id="Vector_266" d="M222.258 178.946H216.023V181.487H222.258V178.946Z" fill="white"/>
<path id="Vector_267" d="M214.287 183.257H208.052V185.799H214.287V183.257Z" fill="white"/>
<path id="Vector_268" d="M222.258 183.257H216.023V185.799H222.258V183.257Z" fill="white"/>
<path id="Vector_269" d="M214.287 187.576H208.052V190.117H214.287V187.576Z" fill="white"/>
<path id="Vector_270" d="M222.258 187.576H216.023V190.117H222.258V187.576Z" fill="white"/>
<path id="Vector_271" d="M214.287 191.895H208.052V194.437H214.287V191.895Z" fill="white"/>
<path id="Vector_272" d="M222.258 191.895H216.023V194.437H222.258V191.895Z" fill="white"/>
<path id="Vector_273" d="M214.287 196.214H208.052V198.755H214.287V196.214Z" fill="white"/>
<path id="Vector_274" d="M222.258 196.214H216.023V198.755H222.258V196.214Z" fill="white"/>
<path id="Vector_275" d="M241.665 136.991H225.605V208.932H241.665V136.991Z" fill="#C7C7C7"/>
<path id="Vector_276" d="M234.945 198.76H240.06V196.219H234.945V198.76Z" fill="#1C2A3D"/>
<path id="Vector_277" d="M228.399 198.76H233.514V196.219H228.399V198.76Z" fill="#1C2A3D"/>
<path id="Vector_278" d="M234.945 194.442H240.06V191.901H234.945V194.442Z" fill="#1C2A3D"/>
<path id="Vector_279" d="M228.399 194.442H233.514V191.901H228.399V194.442Z" fill="#1C2A3D"/>
<path id="Vector_280" d="M234.945 190.124H240.06V187.583H234.945V190.124Z" fill="#1C2A3D"/>
<path id="Vector_281" d="M228.399 190.124H233.514V187.583H228.399V190.124Z" fill="#1C2A3D"/>
<path id="Vector_282" d="M234.945 185.806H240.06V183.264H234.945V185.806Z" fill="#1C2A3D"/>
<path id="Vector_283" d="M228.399 185.806H233.514V183.264H228.399V185.806Z" fill="#1C2A3D"/>
<path id="Vector_284" d="M234.945 181.481H240.06V178.94H234.945V181.481Z" fill="#1C2A3D"/>
<path id="Vector_285" d="M228.399 181.481H233.514V178.94H228.399V181.481Z" fill="#1C2A3D"/>
<path id="Vector_286" d="M234.945 177.168H240.06V174.626H234.945V177.168Z" fill="#1C2A3D"/>
<path id="Vector_287" d="M228.399 177.168H233.514V174.626H228.399V177.168Z" fill="#1C2A3D"/>
<path id="Vector_288" d="M234.945 172.85H240.06V170.308H234.945V172.85Z" fill="#1C2A3D"/>
<path id="Vector_289" d="M228.399 172.85H233.514V170.308H228.399V172.85Z" fill="#1C2A3D"/>
<path id="Vector_290" d="M234.945 168.531H240.06V165.99H234.945V168.531Z" fill="#1C2A3D"/>
<path id="Vector_291" d="M228.399 168.531H233.514V165.99H228.399V168.531Z" fill="#1C2A3D"/>
<path id="Vector_292" d="M234.945 164.213H240.06V161.672H234.945V164.213Z" fill="#1C2A3D"/>
<path id="Vector_293" d="M228.399 164.213H233.514V161.672H228.399V164.213Z" fill="#1C2A3D"/>
<path id="Vector_294" d="M234.945 159.895H240.06V157.354H234.945V159.895Z" fill="#1C2A3D"/>
<path id="Vector_295" d="M228.399 159.895H233.514V157.354H228.399V159.895Z" fill="#1C2A3D"/>
<path id="Vector_296" d="M234.945 155.577H240.06V153.036H234.945V155.577Z" fill="#1C2A3D"/>
<path id="Vector_297" d="M228.399 155.577H233.514V153.036H228.399V155.577Z" fill="#1C2A3D"/>
<path id="Vector_298" d="M234.945 151.264H240.06V148.722H234.945V151.264Z" fill="#1C2A3D"/>
<path id="Vector_299" d="M228.399 151.264H233.514V148.722H228.399V151.264Z" fill="#1C2A3D"/>
<path id="Vector_300" d="M234.945 146.945H240.06V144.404H234.945V146.945Z" fill="#1C2A3D"/>
<path id="Vector_301" d="M228.399 146.945H233.514V144.404H228.399V146.945Z" fill="#1C2A3D"/>
<path id="Vector_302" d="M234.945 142.627H240.06V140.086H234.945V142.627Z" fill="#1C2A3D"/>
<path id="Vector_303" d="M228.399 142.627H233.514V140.086H228.399V142.627Z" fill="#1C2A3D"/>
<path id="Vector_304" d="M90.2122 123.47H77.9541V137.929H90.2122V123.47Z" fill="#1C2A3D"/>
<path id="Vector_305" d="M97.9839 123.47H90.2122V138.463H97.9839V123.47Z" fill="#C7C7C7"/>
<path id="Vector_306" d="M98.5065 129.853H90.7908V138.458H98.5065V129.853Z" fill="#1C2A3D"/>
<path id="Vector_307" d="M103.317 129.853H98.5068V138.458H103.317V129.853Z" fill="#C7C7C7"/>
<path id="Vector_308" d="M93.0806 136.991H73.2561V208.932H93.0806V136.991Z" fill="#1C2A3D"/>
<path id="Vector_309" d="M81.7561 140.079H75.5212V142.62H81.7561V140.079Z" fill="white"/>
<path id="Vector_310" d="M89.727 140.079H83.4922V142.62H89.727V140.079Z" fill="white"/>
<path id="Vector_311" d="M81.7561 144.399H75.5212V146.94H81.7561V144.399Z" fill="white"/>
<path id="Vector_312" d="M89.727 144.399H83.4922V146.94H89.727V144.399Z" fill="white"/>
<path id="Vector_313" d="M81.7561 148.717H75.5212V151.258H81.7561V148.717Z" fill="white"/>
<path id="Vector_314" d="M89.727 148.717H83.4922V151.258H89.727V148.717Z" fill="white"/>
<path id="Vector_315" d="M81.7561 153.035H75.5212V155.576H81.7561V153.035Z" fill="white"/>
<path id="Vector_316" d="M89.727 153.035H83.4922V155.576H89.727V153.035Z" fill="white"/>
<path id="Vector_317" d="M81.7561 157.353H75.5212V159.895H81.7561V157.353Z" fill="white"/>
<path id="Vector_318" d="M89.727 157.353H83.4922V159.895H89.727V157.353Z" fill="white"/>
<path id="Vector_319" d="M81.7561 161.671H75.5212V164.213H81.7561V161.671Z" fill="white"/>
<path id="Vector_320" d="M89.727 161.671H83.4922V164.213H89.727V161.671Z" fill="white"/>
<path id="Vector_321" d="M81.7561 165.99H75.5212V168.531H81.7561V165.99Z" fill="white"/>
<path id="Vector_322" d="M89.727 165.99H83.4922V168.531H89.727V165.99Z" fill="white"/>
<path id="Vector_323" d="M81.7561 170.309H75.5212V172.851H81.7561V170.309Z" fill="white"/>
<path id="Vector_324" d="M89.727 170.309H83.4922V172.851H89.727V170.309Z" fill="white"/>
<path id="Vector_325" d="M81.7561 174.627H75.5212V177.169H81.7561V174.627Z" fill="white"/>
<path id="Vector_326" d="M89.727 174.627H83.4922V177.169H89.727V174.627Z" fill="white"/>
<path id="Vector_327" d="M81.7561 178.946H75.5212V181.487H81.7561V178.946Z" fill="white"/>
<path id="Vector_328" d="M89.727 178.946H83.4922V181.487H89.727V178.946Z" fill="white"/>
<path id="Vector_329" d="M81.7561 183.257H75.5212V185.799H81.7561V183.257Z" fill="white"/>
<path id="Vector_330" d="M89.727 183.257H83.4922V185.799H89.727V183.257Z" fill="white"/>
<path id="Vector_331" d="M81.7561 187.576H75.5212V190.117H81.7561V187.576Z" fill="white"/>
<path id="Vector_332" d="M89.727 187.576H83.4922V190.117H89.727V187.576Z" fill="white"/>
<path id="Vector_333" d="M81.7561 191.895H75.5212V194.437H81.7561V191.895Z" fill="white"/>
<path id="Vector_334" d="M89.727 191.895H83.4922V194.437H89.727V191.895Z" fill="white"/>
<path id="Vector_335" d="M81.7561 196.214H75.5212V198.755H81.7561V196.214Z" fill="white"/>
<path id="Vector_336" d="M89.727 196.214H83.4922V198.755H89.727V196.214Z" fill="white"/>
<path id="Vector_337" d="M109.134 136.991H93.0745V208.932H109.134V136.991Z" fill="#C7C7C7"/>
<path id="Vector_338" d="M102.414 198.76H107.529V196.219H102.414V198.76Z" fill="#1C2A3D"/>
<path id="Vector_339" d="M95.8686 198.76H100.983V196.219H95.8686V198.76Z" fill="#1C2A3D"/>
<path id="Vector_340" d="M102.414 194.442H107.529V191.901H102.414V194.442Z" fill="#1C2A3D"/>
<path id="Vector_341" d="M95.8686 194.442H100.983V191.901H95.8686V194.442Z" fill="#1C2A3D"/>
<path id="Vector_342" d="M102.414 190.124H107.529V187.583H102.414V190.124Z" fill="#1C2A3D"/>
<path id="Vector_343" d="M95.8686 190.124H100.983V187.583H95.8686V190.124Z" fill="#1C2A3D"/>
<path id="Vector_344" d="M102.414 185.806H107.529V183.264H102.414V185.806Z" fill="#1C2A3D"/>
<path id="Vector_345" d="M95.8686 185.806H100.983V183.264H95.8686V185.806Z" fill="#1C2A3D"/>
<path id="Vector_346" d="M102.414 181.481H107.529V178.94H102.414V181.481Z" fill="#1C2A3D"/>
<path id="Vector_347" d="M95.8686 181.481H100.983V178.94H95.8686V181.481Z" fill="#1C2A3D"/>
<path id="Vector_348" d="M102.414 177.168H107.529V174.626H102.414V177.168Z" fill="#1C2A3D"/>
<path id="Vector_349" d="M95.8686 177.168H100.983V174.626H95.8686V177.168Z" fill="#1C2A3D"/>
<path id="Vector_350" d="M102.414 172.85H107.529V170.308H102.414V172.85Z" fill="#1C2A3D"/>
<path id="Vector_351" d="M95.8686 172.85H100.983V170.308H95.8686V172.85Z" fill="#1C2A3D"/>
<path id="Vector_352" d="M102.414 168.531H107.529V165.99H102.414V168.531Z" fill="#1C2A3D"/>
<path id="Vector_353" d="M95.8686 168.531H100.983V165.99H95.8686V168.531Z" fill="#1C2A3D"/>
<path id="Vector_354" d="M102.414 164.213H107.529V161.672H102.414V164.213Z" fill="#1C2A3D"/>
<path id="Vector_355" d="M95.8686 164.213H100.983V161.672H95.8686V164.213Z" fill="#1C2A3D"/>
<path id="Vector_356" d="M102.414 159.895H107.529V157.354H102.414V159.895Z" fill="#1C2A3D"/>
<path id="Vector_357" d="M95.8686 159.895H100.983V157.354H95.8686V159.895Z" fill="#1C2A3D"/>
<path id="Vector_358" d="M102.414 155.577H107.529V153.036H102.414V155.577Z" fill="#1C2A3D"/>
<path id="Vector_359" d="M95.8686 155.577H100.983V153.036H95.8686V155.577Z" fill="#1C2A3D"/>
<path id="Vector_360" d="M102.414 151.264H107.529V148.722H102.414V151.264Z" fill="#1C2A3D"/>
<path id="Vector_361" d="M95.8686 151.264H100.983V148.722H95.8686V151.264Z" fill="#1C2A3D"/>
<path id="Vector_362" d="M102.414 146.945H107.529V144.404H102.414V146.945Z" fill="#1C2A3D"/>
<path id="Vector_363" d="M95.8686 146.945H100.983V144.404H95.8686V146.945Z" fill="#1C2A3D"/>
<path id="Vector_364" d="M102.414 142.627H107.529V140.086H102.414V142.627Z" fill="#1C2A3D"/>
<path id="Vector_365" d="M95.8686 142.627H100.983V140.086H95.8686V142.627Z" fill="#1C2A3D"/>
</g>
<g id="Shadow">
<path id="Vector_366" d="M125.089 250.993C184.255 250.993 232.22 246.208 232.22 240.306C232.22 234.403 184.255 229.618 125.089 229.618C65.9219 229.618 17.9578 234.403 17.9578 240.306C17.9578 246.208 65.9219 250.993 125.089 250.993Z" fill="#1C2A3D"/>
</g>
<g id="Building">
<path id="Vector_367" d="M185.52 162.052H162.143V208.928H185.52V162.052Z" fill="#37474F"/>
<path id="Vector_368" d="M169.958 166.109H165.82V168.98H169.958V166.109Z" fill="#455A64"/>
<path id="Vector_369" d="M169.958 172.242H165.82V175.113H169.958V172.242Z" fill="#455A64"/>
<path id="Vector_370" d="M169.958 178.375H165.82V181.246H169.958V178.375Z" fill="#455A64"/>
<path id="Vector_371" d="M169.958 184.514H165.82V187.385H169.958V184.514Z" fill="#455A64"/>
<path id="Vector_372" d="M169.958 190.647H165.82V193.517H169.958V190.647Z" fill="#455A64"/>
<path id="Vector_373" d="M169.958 196.779H165.82V199.65H169.958V196.779Z" fill="#455A64"/>
<path id="Vector_374" d="M169.958 202.912H165.82V205.783H169.958V202.912Z" fill="#455A64"/>
<path id="Vector_375" d="M175.913 166.109H171.775V168.98H175.913V166.109Z" fill="#455A64"/>
<path id="Vector_376" d="M175.913 172.242H171.775V175.113H175.913V172.242Z" fill="#455A64"/>
<path id="Vector_377" d="M175.913 178.375H171.775V181.246H175.913V178.375Z" fill="#455A64"/>
<path id="Vector_378" d="M175.913 184.514H171.775V187.385H175.913V184.514Z" fill="#455A64"/>
<path id="Vector_379" d="M175.913 190.647H171.775V193.517H175.913V190.647Z" fill="#455A64"/>
<path id="Vector_380" d="M175.913 196.779H171.775V199.65H175.913V196.779Z" fill="#455A64"/>
<path id="Vector_381" d="M175.913 202.912H171.775V205.783H175.913V202.912Z" fill="#455A64"/>
<path id="Vector_382" d="M181.849 166.109H177.711V168.98H181.849V166.109Z" fill="#455A64"/>
<path id="Vector_383" d="M181.849 172.242H177.711V175.113H181.849V172.242Z" fill="#455A64"/>
<path id="Vector_384" d="M181.849 178.375H177.711V181.246H181.849V178.375Z" fill="#455A64"/>
<path id="Vector_385" d="M181.849 184.514H177.711V187.385H181.849V184.514Z" fill="#455A64"/>
<path id="Vector_386" d="M181.849 190.647H177.711V193.517H181.849V190.647Z" fill="#455A64"/>
<path id="Vector_387" d="M181.849 196.779H177.711V199.65H181.849V196.779Z" fill="#455A64"/>
<path id="Vector_388" d="M181.849 202.912H177.711V205.783H181.849V202.912Z" fill="#455A64"/>
<path id="Vector_389" d="M185.527 157.168H169.958V162.051H185.527V157.168Z" fill="#455A64"/>
<path id="Vector_390" d="M185.527 154.142H175.658V157.168H185.527V154.142Z" fill="#37474F"/>
<path id="Vector_391" d="M201.929 162.052H185.527V208.928H201.929V162.052Z" fill="#263238"/>
<path id="Vector_392" d="M196.882 205.323H200.249V202.453H196.882V205.323Z" fill="#37474F"/>
<path id="Vector_393" d="M196.882 199.197H200.249V196.326H196.882V199.197Z" fill="#37474F"/>
<path id="Vector_394" d="M196.882 193.064H200.249V190.194H196.882V193.064Z" fill="#37474F"/>
<path id="Vector_395" d="M196.882 186.925H200.249V184.055H196.882V186.925Z" fill="#37474F"/>
<path id="Vector_396" d="M196.882 180.793H200.249V177.922H196.882V180.793Z" fill="#37474F"/>
<path id="Vector_397" d="M196.882 174.654H200.249V171.783H196.882V174.654Z" fill="#37474F"/>
<path id="Vector_398" d="M196.882 168.526H200.249V165.655H196.882V168.526Z" fill="#37474F"/>
<path id="Vector_399" d="M192.041 205.323H195.408V202.453H192.041V205.323Z" fill="#37474F"/>
<path id="Vector_400" d="M192.041 199.197H195.408V196.326H192.041V199.197Z" fill="#37474F"/>
<path id="Vector_401" d="M192.041 193.064H195.408V190.194H192.041V193.064Z" fill="#37474F"/>
<path id="Vector_402" d="M192.041 186.925H195.408V184.055H192.041V186.925Z" fill="#37474F"/>
<path id="Vector_403" d="M192.041 180.793H195.408V177.922H192.041V180.793Z" fill="#37474F"/>
<path id="Vector_404" d="M192.041 174.654H195.408V171.783H192.041V174.654Z" fill="#37474F"/>
<path id="Vector_405" d="M192.041 168.526H195.408V165.655H192.041V168.526Z" fill="#37474F"/>
<path id="Vector_406" d="M187.2 205.323H190.567V202.453H187.2V205.323Z" fill="#37474F"/>
<path id="Vector_407" d="M187.2 199.197H190.567V196.326H187.2V199.197Z" fill="#37474F"/>
<path id="Vector_408" d="M187.2 193.064H190.567V190.194H187.2V193.064Z" fill="#37474F"/>
<path id="Vector_409" d="M187.2 186.925H190.567V184.055H187.2V186.925Z" fill="#37474F"/>
<path id="Vector_410" d="M187.2 180.793H190.567V177.922H187.2V180.793Z" fill="#37474F"/>
<path id="Vector_411" d="M187.2 174.654H190.567V171.783H187.2V174.654Z" fill="#37474F"/>
<path id="Vector_412" d="M187.2 168.526H190.567V165.655H187.2V168.526Z" fill="#37474F"/>
<path id="Vector_413" d="M199.446 157.168H185.527V162.051H199.446V157.168Z" fill="#37474F"/>
<path id="Vector_414" d="M193.068 154.142H185.527V157.168H193.068V154.142Z" fill="#263238"/>
</g>
<g id="Location Pin">
<g id="Group">
<path id="Vector_415" d="M179.161 27.7377H185.47C171.638 27.7377 160.431 39.1024 160.431 53.1202C160.431 67.1381 171.632 78.5153 185.47 78.5153H179.161C165.328 78.5153 154.122 67.1506 154.122 53.1202C154.122 39.0899 165.328 27.7377 179.161 27.7377Z" fill="#1A73E8"/>
<g id="Group_2" opacity="0.1">
<path id="Vector_416" d="M179.161 27.7377H185.47C171.638 27.7377 160.431 39.1024 160.431 53.1202C160.431 67.1381 171.632 78.5153 185.47 78.5153H179.161C165.328 78.5153 154.122 67.1506 154.122 53.1202C154.122 39.0899 165.328 27.7377 179.161 27.7377Z" fill="black"/>
</g>
<path id="Vector_417" d="M185.471 150.55H179.161C204.58 120.98 228.393 88.5632 224.889 52.7728C222.612 29.5899 206.845 6.50012 179.161 6.50012H185.471C213.16 6.50012 228.922 29.5899 231.193 52.7728C234.696 88.5632 210.895 120.98 185.471 150.55Z" fill="#1A73E8"/>
<g id="Group_3" opacity="0.1">
<path id="Vector_418" d="M185.471 150.551H179.161C204.58 120.98 228.393 88.5639 224.89 52.7736C222.612 29.5906 206.845 6.50085 179.161 6.50085H185.471C213.161 6.50085 228.922 29.5906 231.193 52.7736C234.696 88.5639 210.896 120.98 185.471 150.551Z" fill="black"/>
</g>
<path id="Vector_419" d="M224.889 52.7731C228.393 88.5635 204.58 120.98 179.161 150.557C153.774 120.98 129.967 88.5635 133.464 52.7731C135.741 29.5901 151.509 6.50659 179.161 6.50659C206.813 6.50659 222.612 29.5901 224.889 52.7731ZM179.161 78.5161C193.031 78.5161 204.237 67.1514 204.237 53.1211C204.237 39.0907 193.037 27.7385 179.161 27.7385C165.285 27.7385 154.122 39.1032 154.122 53.1211C154.122 67.1389 165.322 78.5161 179.161 78.5161Z" fill="#1A73E8"/>
</g>
</g>
<g id="Floor">
<path id="Vector_420" d="M1.18848 211.809L32.1635 211.66L63.1386 211.604L125.089 211.499L187.039 211.604L218.014 211.66L248.989 211.809L218.014 211.965L187.039 212.021L125.089 212.12L63.1386 212.021L32.1635 211.965L1.18848 211.809Z" fill="#263238"/>
<path id="Vector_421" d="M249.101 208.927H1.07666V211.81H249.101V208.927Z" fill="#C7C7C7"/>
<path id="Vector_422" d="M8.25121 208.927C8.33867 209.402 8.38034 209.885 8.37566 210.368C8.38088 210.852 8.3392 211.334 8.25121 211.81C8.16017 211.335 8.11847 210.852 8.12677 210.368C8.119 209.885 8.16069 209.402 8.25121 208.927Z" fill="#263238"/>
<path id="Vector_423" d="M16.5953 208.927C16.6859 209.402 16.7276 209.885 16.7198 210.368C16.7281 210.852 16.6864 211.335 16.5953 211.81C16.5074 211.334 16.4657 210.852 16.4709 210.368C16.4662 209.885 16.5079 209.402 16.5953 208.927Z" fill="#263238"/>
<path id="Vector_424" d="M24.9396 208.927C25.0301 209.402 25.0718 209.885 25.064 210.368C25.0723 210.852 25.0306 211.335 24.9396 211.81C24.8516 211.334 24.8099 210.852 24.8151 210.368C24.8135 209.885 24.8552 209.402 24.9396 208.927Z" fill="#263238"/>
<path id="Vector_425" d="M33.29 208.927C33.3744 209.402 33.4161 209.885 33.4145 210.368C33.4197 210.852 33.378 211.334 33.29 211.81C33.199 211.335 33.1573 210.852 33.1656 210.368C33.1578 209.885 33.1995 209.402 33.29 208.927Z" fill="#263238"/>
<path id="Vector_426" d="M41.6343 208.927C41.7217 209.402 41.7634 209.885 41.7587 210.368C41.7639 210.852 41.7223 211.334 41.6343 211.81C41.5432 211.335 41.5015 210.852 41.5098 210.368C41.5021 209.885 41.5438 209.402 41.6343 208.927Z" fill="#263238"/>
<path id="Vector_427" d="M49.9784 208.927C50.0689 209.402 50.1106 209.885 50.1028 210.368C50.1111 210.852 50.0694 211.335 49.9784 211.81C49.8904 211.334 49.8487 210.852 49.854 210.368C49.8493 209.885 49.8909 209.402 49.9784 208.927Z" fill="#263238"/>
<path id="Vector_428" d="M58.3226 208.927C58.4132 209.402 58.4549 209.885 58.4471 210.368C58.4554 210.852 58.4137 211.335 58.3226 211.81C58.2347 211.334 58.193 210.852 58.1982 210.368C58.1966 209.885 58.2383 209.402 58.3226 208.927Z" fill="#263238"/>
<path id="Vector_429" d="M66.6731 208.927C66.7575 209.402 66.7991 209.885 66.7975 210.368C66.8028 210.852 66.7611 211.334 66.6731 211.81C66.5821 211.335 66.5403 210.852 66.5486 210.368C66.5409 209.885 66.5826 209.402 66.6731 208.927Z" fill="#263238"/>
<path id="Vector_430" d="M75.0173 208.927C75.1048 209.402 75.1465 209.885 75.1418 210.368C75.147 210.852 75.1053 211.334 75.0173 211.81C74.9263 211.335 74.8846 210.852 74.8929 210.368C74.8851 209.885 74.9268 209.402 75.0173 208.927Z" fill="#263238"/>
<path id="Vector_431" d="M83.3803 208.927C83.4708 209.402 83.5125 209.885 83.5047 210.368C83.513 210.852 83.4713 211.335 83.3803 211.81C83.2923 211.334 83.2506 210.852 83.2558 210.368C83.2511 209.885 83.2928 209.402 83.3803 208.927Z" fill="#263238"/>
<path id="Vector_432" d="M91.7057 208.927C91.7962 209.402 91.8379 209.885 91.8301 210.368C91.8384 210.852 91.7967 211.335 91.7057 211.81C91.6177 211.334 91.576 210.852 91.5812 210.368C91.5797 209.885 91.6213 209.402 91.7057 208.927Z" fill="#263238"/>
<path id="Vector_433" d="M100.056 208.927C100.141 209.402 100.182 209.885 100.181 210.368C100.186 210.852 100.144 211.334 100.056 211.81C99.9651 211.335 99.9234 210.852 99.9317 210.368C99.9239 209.885 99.9656 209.402 100.056 208.927Z" fill="#263238"/>
<path id="Vector_434" d="M108.401 208.927C108.488 209.402 108.53 209.885 108.525 210.368C108.53 210.852 108.489 211.334 108.401 211.81C108.31 211.335 108.268 210.852 108.276 210.368C108.268 209.885 108.31 209.402 108.401 208.927Z" fill="#263238"/>
<path id="Vector_435" d="M116.745 208.927C116.835 209.402 116.877 209.885 116.869 210.368C116.877 210.852 116.836 211.335 116.745 211.81C116.657 211.334 116.615 210.852 116.62 210.368C116.615 209.885 116.657 209.402 116.745 208.927Z" fill="#263238"/>
<path id="Vector_436" d="M125.07 208.927C125.161 209.402 125.202 209.885 125.195 210.368C125.203 210.852 125.161 211.335 125.07 211.81C124.982 211.334 124.941 210.852 124.946 210.368C124.944 209.885 124.986 209.402 125.07 208.927Z" fill="#263238"/>
<path id="Vector_437" d="M133.439 208.927C133.524 209.402 133.565 209.885 133.564 210.368C133.569 210.852 133.527 211.334 133.439 211.81C133.348 211.335 133.307 210.852 133.315 210.368C133.307 209.885 133.349 209.402 133.439 208.927Z" fill="#263238"/>
<path id="Vector_438" d="M141.784 208.927C141.871 209.402 141.913 209.885 141.908 210.368C141.913 210.852 141.872 211.334 141.784 211.81C141.693 211.335 141.651 210.852 141.659 210.368C141.651 209.885 141.693 209.402 141.784 208.927Z" fill="#263238"/>
<path id="Vector_439" d="M150.128 208.927C150.218 209.402 150.26 209.885 150.252 210.368C150.261 210.852 150.219 211.335 150.128 211.81C150.04 211.334 149.998 210.852 150.003 210.368C149.999 209.885 150.04 209.402 150.128 208.927Z" fill="#263238"/>
<path id="Vector_440" d="M158.472 208.927C158.563 209.402 158.604 209.885 158.597 210.368C158.605 210.852 158.563 211.335 158.472 211.81C158.384 211.334 158.342 210.852 158.348 210.368C158.346 209.885 158.388 209.402 158.472 208.927Z" fill="#263238"/>
<path id="Vector_441" d="M166.823 208.927C166.907 209.402 166.949 209.885 166.947 210.368C166.952 210.852 166.91 211.334 166.823 211.81C166.731 211.335 166.69 210.852 166.698 210.368C166.69 209.885 166.732 209.402 166.823 208.927Z" fill="#263238"/>
<path id="Vector_442" d="M175.167 208.927C175.254 209.402 175.296 209.885 175.291 210.368C175.296 210.852 175.255 211.334 175.167 211.81C175.076 211.335 175.034 210.852 175.042 210.368C175.035 209.885 175.076 209.402 175.167 208.927Z" fill="#263238"/>
<path id="Vector_443" d="M183.511 208.927C183.601 209.402 183.643 209.885 183.635 210.368C183.644 210.852 183.602 211.335 183.511 211.81C183.423 211.334 183.381 210.852 183.386 210.368C183.382 209.885 183.423 209.402 183.511 208.927Z" fill="#263238"/>
<path id="Vector_444" d="M191.855 208.927C191.946 209.402 191.987 209.885 191.98 210.368C191.988 210.852 191.946 211.335 191.855 211.81C191.767 211.334 191.725 210.852 191.731 210.368C191.729 209.885 191.771 209.402 191.855 208.927Z" fill="#263238"/>
<path id="Vector_445" d="M200.206 208.927C200.29 209.402 200.332 209.885 200.33 210.368C200.335 210.852 200.294 211.334 200.206 211.81C200.115 211.335 200.073 210.852 200.081 210.368C200.073 209.885 200.115 209.402 200.206 208.927Z" fill="#263238"/>
<path id="Vector_446" d="M208.55 208.927C208.637 209.402 208.679 209.885 208.674 210.368C208.679 210.852 208.638 211.334 208.55 211.81C208.459 211.335 208.417 210.852 208.425 210.368C208.418 209.885 208.459 209.402 208.55 208.927Z" fill="#263238"/>
<path id="Vector_447" d="M216.894 208.927C216.981 209.402 217.023 209.885 217.018 210.368C217.027 210.852 216.985 211.335 216.894 211.81C216.806 211.334 216.764 210.852 216.769 210.368C216.765 209.885 216.806 209.402 216.894 208.927Z" fill="#263238"/>
<path id="Vector_448" d="M225.251 208.927C225.341 209.402 225.383 209.885 225.375 210.368C225.383 210.852 225.342 211.335 225.251 211.81C225.163 211.334 225.121 210.852 225.126 210.368C225.125 209.885 225.166 209.402 225.251 208.927Z" fill="#263238"/>
<path id="Vector_449" d="M233.589 208.927C233.673 209.402 233.715 209.885 233.713 210.368C233.718 210.852 233.677 211.334 233.589 211.81C233.498 211.335 233.456 210.852 233.464 210.368C233.456 209.885 233.498 209.402 233.589 208.927Z" fill="#263238"/>
<path id="Vector_450" d="M241.933 208.927C242.02 209.402 242.062 209.885 242.057 210.368C242.063 210.852 242.021 211.334 241.933 211.81C241.842 211.335 241.8 210.852 241.808 210.368C241.801 209.885 241.842 209.402 241.933 208.927Z" fill="#263238"/>
</g>
<g id="Plants">
<path id="Vector_451" d="M27.0611 208.926H13.3718C13.3718 208.926 13.4029 206.894 14.747 206.354C15.1122 206.195 15.5195 206.159 15.907 206.252C16.2945 206.345 16.641 206.562 16.8937 206.87C16.8937 206.87 17.4413 203.141 19.9489 203.141C22.4565 203.141 23.6823 206.366 23.6823 206.366C23.8955 206.058 24.1937 205.819 24.5407 205.678C24.8877 205.537 25.2683 205.5 25.6362 205.571C27.0051 205.745 27.0611 208.926 27.0611 208.926Z" fill="#37474F"/>
<path id="Vector_452" d="M246.967 208.927C246.967 208.927 246.544 206.976 245.722 206.671C245.465 206.604 245.192 206.624 244.948 206.729C244.703 206.833 244.5 207.017 244.372 207.249C244.372 207.249 244.173 205.385 242.991 204.826C241.808 204.267 240.906 205.41 240.906 205.41C240.906 205.41 239.998 203.043 238.367 203.043C236.737 203.043 235.922 206.504 235.922 206.504C235.922 206.504 234.957 205.472 233.974 206.056C232.991 206.64 232.991 208.927 232.991 208.927H246.967Z" fill="#37474F"/>
<path id="Vector_453" d="M119.234 208.927C119.234 208.927 118.817 206.976 117.989 206.671C117.733 206.604 117.461 206.625 117.218 206.729C116.974 206.834 116.773 207.017 116.645 207.249C116.645 207.249 116.446 205.385 115.258 204.826C114.069 204.267 113.179 205.41 113.179 205.41C113.179 205.41 112.271 203.043 110.641 203.043C109.01 203.043 108.195 206.504 108.195 206.504C108.195 206.504 107.231 205.472 106.248 206.056C105.264 206.64 105.264 208.927 105.264 208.927H119.234Z" fill="#37474F"/>
<path id="Vector_454" d="M15.8298 208.927H3.21704C3.21704 208.927 3.63394 207.15 4.46152 207.025C4.71538 207 4.97091 207.053 5.19351 207.178C5.4161 207.302 5.59501 207.492 5.706 207.721C5.706 207.721 5.66866 205.236 7.23048 204.826C8.7923 204.416 10.1052 206.591 10.1052 206.591C10.3842 206.241 10.7354 205.956 11.1349 205.754C11.5344 205.553 11.9727 205.439 12.42 205.422C13.7515 205.503 14.0938 207.566 14.0938 207.566C14.0938 207.566 15.2947 206.852 15.8298 208.927Z" fill="#455A64"/>
<path id="Vector_455" d="M107.971 208.927H95.3584C95.3584 208.927 95.7691 207.15 96.6029 207.025C96.8567 207 97.1123 207.053 97.3349 207.178C97.5575 207.302 97.7364 207.492 97.8474 207.721C97.8474 207.721 97.81 205.236 99.3718 204.826C100.934 204.416 102.24 206.591 102.24 206.591C102.517 206.243 102.866 205.959 103.262 205.758C103.658 205.556 104.092 205.442 104.536 205.422C105.874 205.503 106.21 207.566 106.21 207.566C106.21 207.566 107.43 206.852 107.971 208.927Z" fill="#455A64"/>
<path id="Vector_456" d="M233.881 208.928H226.134C226.134 208.928 226.134 207.778 226.912 207.474C227.118 207.382 227.348 207.36 227.567 207.411C227.786 207.463 227.983 207.585 228.125 207.759C228.125 207.759 228.437 205.647 229.855 205.647C231.274 205.647 231.958 207.474 231.958 207.474C232.079 207.299 232.248 207.163 232.445 207.082C232.641 207.002 232.857 206.98 233.066 207.02C233.85 207.126 233.881 208.928 233.881 208.928Z" fill="#455A64"/>
<path id="Vector_457" d="M139.07 208.928H131.323C131.323 208.928 131.323 207.778 132.101 207.474C132.307 207.383 132.537 207.361 132.756 207.413C132.975 207.465 133.171 207.586 133.315 207.759C133.315 207.759 133.626 205.647 135.044 205.647C136.463 205.647 137.141 207.474 137.141 207.474C137.263 207.299 137.432 207.164 137.628 207.083C137.825 207.003 138.04 206.981 138.249 207.02C139.039 207.126 139.07 208.928 139.07 208.928Z" fill="#455A64"/>
</g>
<g id="Character">
<path id="Vector_458" d="M106.963 242.386C105.507 242.852 64.1345 242.324 62.5727 241.305C61.9505 240.926 61.7016 234.905 61.5771 227.635V227.417C61.5771 225.914 61.5273 224.366 61.5273 222.801C61.5273 222.583 61.5273 222.372 61.5273 222.179L63.5185 200.699L91.1957 200.966L88.4703 222.198L88.4392 223.043L88.2712 227.436V227.889C88.2712 227.889 104.014 235.159 105.613 236.464C107.212 237.769 108.413 241.92 106.963 242.386Z" fill="#DD6A57"/>
<path id="Vector_459" d="M106.963 242.386C105.507 242.852 64.1345 242.324 62.5727 241.305C61.9505 240.926 61.7016 234.905 61.5771 227.635V227.418C61.5771 225.914 61.5273 224.367 61.5273 222.801C61.5273 222.584 61.5273 222.372 61.5273 222.18L88.4827 222.248L88.4516 223.093L88.2836 227.486V227.94C88.2836 227.94 104.026 235.21 105.625 236.515C107.225 237.819 108.413 241.92 106.963 242.386Z" fill="#1C2A3D"/>
<path id="Vector_460" d="M106.963 242.379C106.217 242.622 94.9789 242.597 83.9902 242.379C81.7812 242.336 79.5847 242.286 77.4878 242.23C69.6538 242.019 63.1763 241.696 62.5541 241.304C61.9318 240.913 61.6829 235.091 61.5647 227.92C61.5647 227.815 61.5647 227.715 61.5647 227.616C61.5647 227.516 61.5647 227.454 61.5647 227.38H61.602L88.265 227.423V227.883C88.265 227.883 104.014 235.153 105.607 236.452C107.2 237.75 108.413 241.92 106.963 242.379Z" fill="#1A73E8"/>
<path id="Vector_461" d="M106.515 240.776C99.5396 240.515 71.3958 240.124 64.4827 240.397C64.4267 240.397 64.4267 240.441 64.4827 240.441C71.3895 240.851 99.5334 241.012 106.509 240.888C106.658 240.888 106.658 240.782 106.515 240.776Z" fill="#263238"/>
<path id="Vector_462" d="M91.2392 227.541C88.5014 226.994 85.1413 227.373 83.0194 229.3C82.9386 229.374 83.0194 229.492 83.1377 229.461C85.7704 228.652 88.4821 228.125 91.2268 227.889C91.273 227.891 91.318 227.874 91.3518 227.843C91.3856 227.811 91.4056 227.768 91.4072 227.721C91.4089 227.675 91.3921 227.63 91.3606 227.597C91.3291 227.563 91.2854 227.543 91.2392 227.541Z" fill="#263238"/>
<path id="Vector_463" d="M93.2054 228.76C90.4676 228.214 87.1075 228.593 84.9856 230.519C84.9048 230.593 84.9856 230.705 85.0976 230.68C87.7307 229.872 90.4422 229.345 93.1868 229.108C93.233 229.111 93.2783 229.095 93.3127 229.064C93.3471 229.033 93.3678 228.99 93.3703 228.944C93.3728 228.898 93.3568 228.852 93.3259 228.818C93.295 228.784 93.2516 228.763 93.2054 228.76Z" fill="#263238"/>
<path id="Vector_464" d="M95.2025 229.978C92.4646 229.431 89.1046 229.81 86.9827 231.736C86.9018 231.811 86.9827 231.923 87.0947 231.898C89.727 231.086 92.4389 230.559 95.1838 230.326C95.2067 230.327 95.2296 230.324 95.2512 230.316C95.2728 230.309 95.2927 230.297 95.3098 230.282C95.3268 230.266 95.3407 230.248 95.3506 230.227C95.3604 230.206 95.3662 230.184 95.3674 230.161C95.3686 230.138 95.3653 230.116 95.3577 230.094C95.3501 230.072 95.3383 230.053 95.323 230.036C95.3077 230.018 95.2891 230.005 95.2685 229.995C95.2478 229.985 95.2254 229.979 95.2025 229.978Z" fill="#263238"/>
<path id="Vector_465" d="M84.0024 242.379C81.7935 242.336 79.597 242.286 77.5 242.23C69.666 242.019 63.1885 241.696 62.5663 241.304C61.944 240.913 61.6951 235.091 61.5769 227.92C61.5769 227.815 61.5769 227.715 61.5769 227.616C61.5769 227.516 61.5769 227.454 61.5769 227.38H61.6018C65.2606 229.94 78.1347 238.496 84.0024 242.379Z" fill="#263238"/>
<path id="Vector_466" d="M89.8639 227.523H60.0711C60.0711 227.523 66.0508 158.024 65.8205 156.813C65.5219 155.259 63.7609 148.225 61.4151 139.035C60.6809 136.158 59.8906 133.077 59.063 129.877C56.8416 121.233 54.39 111.783 52.2557 103.562C49.0512 91.2466 46.5498 81.6776 46.5498 81.6776H71.8003C71.8003 81.6776 74.7435 90.998 78.4582 103.115C84.5064 122.812 92.5893 149.922 93.392 156.514C94.68 167.146 89.8639 227.523 89.8639 227.523Z" fill="#455A64"/>
<path id="Vector_467" d="M88.5447 222.446C83.9962 222.353 85.3029 222.316 80.7481 222.272C78.5205 222.272 63.8854 222.123 61.8071 222.471C61.7976 222.474 61.7894 222.481 61.7836 222.489C61.7778 222.498 61.7747 222.507 61.7747 222.518C61.7747 222.528 61.7778 222.538 61.7836 222.546C61.7894 222.554 61.7976 222.561 61.8071 222.564C63.8854 222.906 78.5205 222.775 80.7481 222.751C85.3029 222.707 83.9962 222.67 88.5447 222.577C88.5621 222.577 88.5787 222.57 88.5909 222.557C88.6032 222.545 88.6101 222.529 88.6101 222.511C88.6101 222.494 88.6032 222.477 88.5909 222.465C88.5787 222.453 88.5621 222.446 88.5447 222.446Z" fill="#263238"/>
<path id="Vector_468" d="M71.4269 152.569C70.4438 148.269 68.9877 144.056 67.6935 139.831C65.1133 131.256 62.5144 122.684 59.8968 114.113C58.6026 109.826 57.3042 105.549 56.0016 101.282C55.3296 99.1196 54.6638 96.9324 53.9855 94.8011C53.3073 92.6699 52.5668 90.5945 51.9695 88.4633C51.7268 87.5996 51.5961 88.0718 51.9073 89.1778C52.5295 91.3961 53.1517 93.6143 53.774 95.8264C55.0558 100.213 56.348 104.596 57.6505 108.974C60.2308 117.673 62.8379 126.383 65.4721 135.103C66.7871 139.469 68.1021 143.833 69.4171 148.195C70.0831 150.273 70.6233 152.389 71.0349 154.533C71.3861 156.772 71.4739 159.045 71.2962 161.305C71.01 165.86 70.4873 170.402 70.0518 174.944C69.6162 179.486 69.2117 184.047 68.8073 188.614C67.9776 197.669 67.148 206.727 66.3183 215.786C66.2188 216.936 66.113 218.085 66.0259 219.235C65.9948 219.62 66.5797 219.589 66.6481 219.235C67.625 210.281 68.3779 201.296 69.218 192.324L71.7069 165.549C71.9185 163.306 72.1549 161.063 72.1549 158.807C72.1467 156.707 71.9025 154.615 71.4269 152.569Z" fill="#263238"/>
<path id="Vector_469" d="M68.9317 81.6776C67.1833 95.2233 63.848 120.618 61.4151 139.042C55.7154 116.722 46.5498 81.6838 46.5498 81.6838L68.9317 81.6776Z" fill="#263238"/>
<path id="Vector_470" d="M74.8556 242.79C73.4058 243.262 32.0331 242.89 30.4651 241.871C29.8429 241.498 29.5691 235.477 29.4197 228.201V227.971C29.3824 226.467 29.3575 224.92 29.3513 223.354C29.3513 223.136 29.3513 222.925 29.3513 222.733C29.2517 212.213 30.0109 201.296 30.0109 201.296L57.0534 201.47L56.3067 222.702V223.547L56.1573 227.94V228.393C56.1573 228.393 71.9249 235.607 73.5303 236.906C75.1356 238.204 76.3054 242.33 74.8556 242.79Z" fill="#DD6A57"/>
<path id="Vector_471" d="M74.8554 242.79C73.4056 243.262 32.0329 242.889 30.4649 241.87C29.8426 241.497 29.5689 235.476 29.4195 228.2V227.97C29.3822 226.467 29.3573 224.919 29.3511 223.354C29.3511 223.136 29.3511 222.925 29.3511 222.732H56.3065V223.577L56.1571 227.97V228.424C56.1571 228.424 71.9247 235.638 73.53 236.936C75.1354 238.235 76.3052 242.33 74.8554 242.79Z" fill="#1C2A3D"/>
<path id="Vector_472" d="M74.8553 242.79C73.4055 243.262 32.0328 242.889 30.4648 241.87C29.8426 241.498 29.5688 235.477 29.4194 228.2V227.97L56.1135 227.915V228.368C56.1135 228.368 71.881 235.582 73.4864 236.881C75.0918 238.179 76.3051 242.33 74.8553 242.79Z" fill="#1A73E8"/>
<path id="Vector_473" d="M74.4015 241.181C67.4324 240.951 39.2824 240.659 32.3755 240.958C32.3195 240.958 32.3195 241.001 32.3755 241.001C39.2824 241.386 67.4262 241.448 74.4015 241.299C74.5509 241.293 74.5509 241.188 74.4015 241.181Z" fill="#263238"/>
<path id="Vector_474" d="M59.1129 228.04C56.375 227.499 53.0149 227.89 50.8993 229.823C50.8184 229.897 50.8993 230.016 51.0176 229.984C53.6492 229.164 56.3609 228.627 59.1067 228.381C59.1466 228.374 59.1829 228.354 59.2093 228.323C59.2358 228.292 59.2506 228.254 59.2513 228.213C59.2521 228.173 59.2387 228.133 59.2134 228.101C59.1881 228.07 59.1526 228.048 59.1129 228.04Z" fill="#263238"/>
<path id="Vector_475" d="M61.0539 229.214C58.3161 228.679 54.956 229.071 52.8404 231.003C52.7595 231.078 52.8404 231.196 52.9524 231.165C55.5842 230.346 58.2959 229.808 61.0415 229.562C61.0877 229.563 61.1327 229.547 61.1665 229.515C61.2004 229.484 61.2203 229.44 61.2219 229.394C61.2236 229.348 61.2068 229.303 61.1753 229.269C61.1438 229.235 61.1002 229.215 61.0539 229.214Z" fill="#263238"/>
<path id="Vector_476" d="M63.0266 230.425C60.2825 229.891 56.9224 230.282 54.8068 232.214C54.7259 232.289 54.8068 232.401 54.925 232.376C57.5559 231.553 60.2679 231.015 63.0141 230.773C63.0603 230.774 63.1053 230.758 63.1392 230.726C63.173 230.695 63.1929 230.651 63.1946 230.605C63.1962 230.559 63.1795 230.514 63.148 230.48C63.1164 230.446 63.0728 230.427 63.0266 230.425Z" fill="#263238"/>
<path id="Vector_477" d="M70.9852 81.6777C70.9852 81.6777 70.4065 93.7446 67.6437 103.301C67.4197 104.09 67.1771 104.867 66.9219 105.613C64.3865 106.631 61.9496 107.879 59.6417 109.341C59.6417 109.341 59.3555 119.046 59.0631 129.846C58.7457 141.95 58.4408 155.452 58.4844 158.31C58.7395 169.022 57.159 227.903 57.159 227.903L27.3662 228.027C27.3662 228.027 32.7361 162.25 32.6988 158.323C32.6428 152.016 34.1362 124.148 35.2873 103.811C35.9967 91.284 36.5753 81.6218 36.5753 81.6218L70.9852 81.6777Z" fill="#455A64"/>
<path id="Vector_478" d="M56.1323 222.67C51.5838 222.596 52.8905 222.552 48.3419 222.533C46.1143 222.533 31.4792 222.459 29.3947 222.813C29.3512 222.813 29.3512 222.894 29.3947 222.906C31.4792 223.242 46.1143 223.049 48.3419 223.012C52.8905 222.95 51.5838 222.919 56.1386 222.807C56.1567 222.806 56.1738 222.798 56.1861 222.785C56.1983 222.771 56.2047 222.753 56.2039 222.735C56.2031 222.717 56.1951 222.7 56.1817 222.688C56.1682 222.676 56.1505 222.669 56.1323 222.67Z" fill="#263238"/>
<path id="Vector_479" d="M39.077 85.9956C38.5356 102.592 37.9569 119.189 37.2103 135.779C36.4636 152.369 35.468 169.072 34.0991 185.674C33.3275 194.951 32.5932 208 31.6101 217.258C31.6101 217.32 31.6972 217.345 31.7097 217.258C33.8751 200.792 35.076 180.436 36.14 163.865C37.204 147.293 37.9196 130.709 38.4858 114.118C38.8032 104.73 39.0459 95.3471 39.3259 85.9583C39.2885 85.8527 39.0832 85.8651 39.077 85.9956Z" fill="#263238"/>
<path id="Vector_480" d="M68.1601 104.892C65.1959 106.131 62.3456 107.626 59.6416 109.359C59.6217 109.373 59.6077 109.394 59.6021 109.418C59.5964 109.441 59.5997 109.466 59.6112 109.488C59.6226 109.509 59.6416 109.525 59.6644 109.534C59.6872 109.542 59.7123 109.542 59.735 109.533C62.6035 108.135 65.5405 106.793 68.3343 105.24C68.3805 105.217 68.4157 105.176 68.432 105.127C68.4483 105.078 68.4445 105.025 68.4214 104.979C68.3983 104.933 68.3578 104.898 68.3088 104.881C68.2598 104.865 68.2063 104.869 68.1601 104.892Z" fill="#263238"/>
<path id="Vector_481" d="M68.322 94.6575C68.1291 95.7139 67.8677 96.764 67.6437 97.8141C67.4197 98.8642 67.2704 99.8024 67.0215 100.778C66.8071 101.721 66.3279 102.583 65.6401 103.263C65.2481 103.618 64.825 103.941 64.3957 104.27L63.6987 104.798C63.7299 104.655 63.7547 104.512 63.7796 104.369L63.985 103.17C64.1343 102.275 64.2774 101.387 64.4143 100.492C64.6819 98.7399 64.9246 96.9628 65.2917 95.2292C65.2953 95.2219 65.2973 95.2139 65.2975 95.2057C65.2978 95.1975 65.2962 95.1894 65.2929 95.1819C65.2896 95.1744 65.2848 95.1677 65.2786 95.1623C65.2725 95.1569 65.2652 95.1529 65.2574 95.1506C65.2495 95.1483 65.2412 95.1477 65.2331 95.149C65.2251 95.1502 65.2173 95.1532 65.2105 95.1577C65.2037 95.1622 65.198 95.1682 65.1937 95.1752C65.1895 95.1822 65.1868 95.19 65.1859 95.1981C64.7441 96.9193 64.265 98.6218 63.8854 100.362C63.6987 101.213 63.0267 105.413 63.0018 105.712C62.9769 106.01 62.9458 106.333 62.9334 106.637C62.8933 106.951 62.8933 107.268 62.9334 107.582C62.9334 107.656 63.0454 107.644 63.0765 107.582C63.2011 107.289 63.2909 106.982 63.3441 106.668C63.4187 106.37 63.4872 106.047 63.5432 105.761C63.5432 105.649 63.5432 105.538 63.593 105.426C64.0036 105.171 64.3894 104.842 64.7814 104.562C65.1735 104.282 65.6215 103.941 66.0259 103.63C66.7537 103.014 67.2785 102.193 67.5317 101.275C67.7877 100.283 67.9543 99.2705 68.0295 98.249C68.1602 97.056 68.2598 95.8568 68.4278 94.6638C68.4464 94.6141 68.3344 94.583 68.322 94.6575Z" fill="#263238"/>
<path id="Vector_482" d="M60.2579 50.5596C61.9068 55.1577 67.7248 65.4723 76.6539 73.5935C80.1011 76.7003 105.793 74.6684 108.338 73.6804C110.124 72.9845 113.441 60.054 111.568 58.8858C108.065 56.6924 85.0914 61.7503 84.1145 61.2346C82.6212 60.4392 72.7338 53.8218 66.3621 47.5647C61.7139 42.948 57.52 42.9045 60.2579 50.5596Z" fill="#DD6A57"/>
<path id="Vector_483" d="M66.8595 64.1482L81.4385 58.3695C81.4385 58.3695 68.3715 47.1415 63.574 44.9233C58.1979 42.4378 58.0921 45.7186 59.9837 51.025C61.8753 56.3315 66.8595 64.1482 66.8595 64.1482Z" fill="#37474F"/>
<path id="Vector_484" d="M78.359 56.5999C77.8238 56.718 73.2504 58.464 72.2672 58.8492C71.2841 59.2345 67.2396 60.8314 66.2564 61.3347C66.2129 61.3347 66.2564 61.4217 66.2564 61.4092C67.308 61.111 71.3899 59.5452 72.4041 59.1351C73.4184 58.725 77.8985 56.9354 78.3652 56.6496C78.4025 56.6434 78.4025 56.5937 78.359 56.5999Z" fill="#263238"/>
<path id="Vector_485" d="M72.4788 61.9189L66.8786 64.1496C66.8786 64.1496 61.9007 56.3266 60.034 51.0264C58.6526 47.1491 58.3353 44.3406 60.3638 44.092L72.4788 61.9189Z" fill="#263238"/>
<path id="Vector_486" d="M33.2464 94.8124C33.3397 94.9181 74.5569 95.1853 74.9364 94.7689C75.4653 94.1476 66.3122 49.5525 62.0996 44.0286C61.2036 42.8481 55.5163 41.2387 52.2185 43.923C45.2121 49.6209 39.1515 69.1813 37.7203 75.078C35.3807 84.8085 32.9104 94.4458 33.2464 94.8124Z" fill="#1A73E8"/>
<path id="Vector_487" opacity="0.1" d="M62.33 44.3773H51.6897C51.8639 44.2158 52.0382 44.0666 52.2124 43.9237C52.3182 43.8375 52.4282 43.7566 52.5422 43.6814H61.7077C61.8524 43.7783 61.9824 43.8954 62.0935 44.0294C62.1795 44.1403 62.2585 44.2565 62.33 44.3773Z" fill="black"/>
<path id="Vector_488" opacity="0.1" d="M63.3255 46.3779H49.854C50.0469 46.1356 50.2398 45.8995 50.4389 45.6758H63.0206C63.1201 45.8933 63.2197 46.1294 63.3255 46.3779Z" fill="black"/>
<path id="Vector_489" opacity="0.1" d="M64.0908 48.3786H48.4104C48.5722 48.1363 48.7277 47.9064 48.8895 47.6765H63.8233L64.0908 48.3786Z" fill="black"/>
<path id="Vector_490" opacity="0.1" d="M64.775 50.373H47.1843C47.3212 50.1369 47.4581 49.9008 47.6012 49.6709H64.5448C64.6257 49.9008 64.7128 50.1369 64.775 50.373Z" fill="black"/>
<path id="Vector_491" opacity="0.1" d="M65.4099 52.3736H46.0894C46.2138 52.1375 46.332 51.9014 46.4627 51.6715H65.1921C65.2605 51.9014 65.3352 52.1375 65.4099 52.3736Z" fill="black"/>
<path id="Vector_492" opacity="0.1" d="M66.0013 54.3744H45.0879C45.1999 54.1383 45.3119 53.9021 45.4301 53.6722H65.796L66.0013 54.3744Z" fill="black"/>
<path id="Vector_493" opacity="0.1" d="M66.5796 56.3688H44.179L44.4963 55.6666H66.3804C66.4364 55.9214 66.4987 56.1326 66.5796 56.3688Z" fill="black"/>
<path id="Vector_494" opacity="0.1" d="M67.1089 58.3695H43.302L43.6007 57.6674H66.9222L67.1089 58.3695Z" fill="black"/>
<path id="Vector_495" opacity="0.1" d="M67.6376 60.3718H42.4929C42.58 60.1357 42.6734 59.9058 42.7729 59.6697H67.4572C67.5132 59.8996 67.5754 60.1357 67.6376 60.3718Z" fill="black"/>
<path id="Vector_496" opacity="0.1" d="M68.1479 62.3662H41.7214C41.8085 62.1301 41.8957 61.9002 41.989 61.6641H67.9737C68.0297 61.9002 68.0919 62.1363 68.1479 62.3662Z" fill="black"/>
<path id="Vector_497" opacity="0.1" d="M68.6517 64.3668H40.9932C41.0741 64.1307 41.1612 63.9008 41.2483 63.6647H68.4775C68.5335 63.9008 68.5895 64.1307 68.6517 64.3668Z" fill="black"/>
<path id="Vector_498" opacity="0.1" d="M69.1371 66.3613H40.3025C40.3772 66.1314 40.4581 65.8953 40.5452 65.6654H68.969L69.1371 66.3613Z" fill="black"/>
<path id="Vector_499" opacity="0.1" d="M69.6163 68.3492H39.6431L39.8671 67.6471H69.4483L69.6163 68.3492Z" fill="black"/>
<path id="Vector_500" opacity="0.1" d="M70.0829 70.3627H39.0208C39.0892 70.1328 39.1576 69.8966 39.2323 69.6605H69.9274C69.9771 69.8966 70.0331 70.1328 70.0829 70.3627Z" fill="black"/>
<path id="Vector_501" opacity="0.1" d="M70.5495 72.3572H38.4358C38.498 72.1335 38.5665 71.9036 38.6349 71.6613H70.3691C70.4375 71.8974 70.4935 72.1273 70.5495 72.3572Z" fill="black"/>
<path id="Vector_502" opacity="0.1" d="M70.9979 74.3578H37.8948C37.9508 74.1403 38.013 73.9042 38.0752 73.6556H70.8423C70.8921 73.8918 70.9357 74.1217 70.9979 74.3578Z" fill="black"/>
<path id="Vector_503" opacity="0.1" d="M71.4457 76.3584H37.4092L37.5772 75.6562H71.2901C71.3399 75.8924 71.3897 76.1285 71.4457 76.3584Z" fill="black"/>
<path id="Vector_504" opacity="0.1" d="M71.8812 78.3529H36.9238L37.0918 77.657H71.7319L71.8812 78.3529Z" fill="black"/>
<path id="Vector_505" opacity="0.1" d="M72.3041 80.3535H36.4382L36.6062 79.6514H72.1796C72.2108 79.8875 72.2605 80.1174 72.3041 80.3535Z" fill="black"/>
<path id="Vector_506" opacity="0.1" d="M72.7275 82.3542H35.9531L36.1211 81.6521H72.5843C72.6341 81.8882 72.6839 82.1243 72.7275 82.3542Z" fill="black"/>
<path id="Vector_507" opacity="0.1" d="M73.1381 84.3486H35.4678L35.6358 83.6465H72.9701C73.0448 83.8826 73.0946 84.1187 73.1381 84.3486Z" fill="black"/>
<path id="Vector_508" opacity="0.1" d="M73.5424 86.3684H34.9636C35.0258 86.1385 35.0819 85.9024 35.1379 85.6663H73.4242C73.4242 85.8837 73.4989 86.1199 73.5424 86.3684Z" fill="black"/>
<path id="Vector_509" opacity="0.1" d="M73.9345 88.3516H34.5032C34.5592 88.1217 34.609 87.8917 34.6712 87.6494H73.7976C73.8411 87.8917 73.8909 88.1217 73.9345 88.3516Z" fill="black"/>
<path id="Vector_510" opacity="0.1" d="M74.3077 90.3459H34.0364C34.0862 90.116 34.1422 89.8861 34.1982 89.6438H74.177C74.2206 89.8861 74.2641 90.0974 74.3077 90.3459Z" fill="black"/>
<path id="Vector_511" opacity="0.1" d="M74.6689 92.3467H33.6011C33.6446 92.1292 33.6944 91.8931 33.7566 91.6445H74.5444C74.5817 91.8931 74.6191 92.123 74.6689 92.3467Z" fill="black"/>
<path id="Vector_512" opacity="0.1" d="M74.9427 94.3474H33.2527C33.2527 94.161 33.3087 93.9249 33.3585 93.6453H74.8556C74.8991 93.9311 74.924 94.1672 74.9427 94.3474Z" fill="black"/>
<path id="Vector_513" d="M64.0906 95.981L70.6863 67.852L73.281 42.631L86.9454 46.2535L98.3697 43.9669L108.581 48.3289L123.122 45.0419L113.291 71.6796L109.147 98.6528L98.1457 101.374L87.0885 96.6272L75.882 100.293L64.0906 95.981Z" fill="#1C2A3D"/>
<path id="Vector_514" d="M75.8821 100.293L86.9455 46.2529L98.3698 43.9663L87.0886 96.6266L75.8821 100.293Z" fill="#1C2A3D"/>
<path id="Vector_515" d="M98.1458 101.375L108.581 48.3292L123.122 45.0422L113.291 71.68L109.147 98.6532L98.1458 101.375Z" fill="#1C2A3D"/>
<path id="Vector_516" d="M120.385 57.0959C120.839 59.7678 122.83 63.496 122.519 65.4843C122.459 65.9776 122.241 66.4384 121.898 66.7986C121.555 67.1589 121.105 67.3995 120.615 67.4851C120.615 67.4851 122.27 68.9888 121.685 70.7472C121.387 71.6544 119.676 71.99 119.676 71.99C120.026 72.3545 120.269 72.808 120.379 73.3011C120.488 73.7941 120.46 74.3078 120.298 74.7861C119.812 76.0288 118.17 76.1406 118.17 76.1406C118.17 76.1406 118.792 77.9177 117.921 78.9989C116.098 81.1985 105.215 78.129 104.667 73.649C104.412 71.5612 107.032 72.456 107.032 72.456C107.032 72.456 103.578 70.2626 104.151 68.007C104.723 65.7515 108.065 67.1123 108.065 67.1123C108.065 67.1123 104.736 64.9562 105.576 62.6758C106.441 60.3022 109.539 62.2408 109.539 62.2408C109.539 62.2408 107.585 59.9231 108.625 58.32C110.342 55.6792 114.803 60.8552 117.336 60.967L118.643 57.1457L120.385 57.0959Z" fill="#DD6A57"/>
<path id="Vector_517" d="M121.368 61.0602C121.163 58.4878 123.129 57.9534 123.62 55.5239C124.168 52.8085 120.827 52.6159 118.73 56.9903L117.379 60.9483L121.368 61.0602Z" fill="#DD6A57"/>
<path id="Vector_518" d="M117.939 76.1784C117.977 76.1784 117.977 76.2405 117.939 76.2405C113.96 76.1076 110.115 74.7707 106.913 72.4067C106.814 72.326 106.913 72.1334 107.019 72.1955C110.445 74.0469 114.124 75.3887 117.939 76.1784Z" fill="#263238"/>
<path id="Vector_519" d="M119.719 72.0085C119.763 72.0085 119.719 72.0893 119.719 72.0831C115.333 71.8979 111.159 70.1499 107.953 67.1557C107.847 67.0501 107.859 66.845 107.99 66.9569C110.242 68.8893 116.129 71.3188 119.719 72.0085Z" fill="#263238"/>
<path id="Vector_520" d="M109.408 61.9246C112.569 64.8202 116.34 66.4108 120.453 67.5169C120.509 67.5169 120.453 67.6101 120.453 67.6101C118.3 67.6101 115.749 66.6656 113.826 65.746C112.029 64.9311 110.475 63.6609 109.321 62.0613C109.259 61.9681 109.34 61.8625 109.408 61.9246Z" fill="#263238"/>
<path id="Vector_521" d="M46.6682 47.5951C39.4192 55.6231 25.3566 76.3517 28.0571 81.8507C31.7034 89.2573 45.5109 100.305 50.4577 102.113C52.592 102.89 61.77 87.443 59.7913 86.0263C57.4268 84.3299 44.2913 74.9909 44.4157 74.1148C44.5402 73.2387 48.6781 63.1478 50.9368 54.2312C53.5813 43.9167 50.6755 43.1835 46.6682 47.5951Z" fill="#DD6A57"/>
<path id="Vector_522" d="M50.8559 84.5723C50.8559 84.5723 57.5263 82.7766 61.9442 81.801C64.4331 81.2604 68.7203 80.7137 70.7115 81.1424C73.6983 81.7638 85.751 86.3742 84.6994 89.3195C83.7474 91.9851 73.8911 86.7284 73.8911 86.7284C73.8911 86.7284 84.3074 91.1525 82.5714 94.1475C80.8353 97.1424 70.4875 89.7296 70.4875 89.7296C70.4875 89.7296 81.0656 94.5141 78.8068 97.3226C77.0832 99.4477 67.3328 93.2527 67.3328 93.2527C67.3328 93.2527 76.4174 97.4345 74.7374 99.69C72.8707 102.175 63.5371 97.0368 63.5371 97.0368C58.3041 102.064 53.5813 103.008 50.4701 102.113C49.7234 101.902 50.8559 84.5723 50.8559 84.5723Z" fill="#DD6A57"/>
<path id="Vector_523" d="M70.3878 84.965C71.6323 85.4434 72.8768 85.9157 74.0839 86.4998C75.2911 87.0838 76.4609 87.7114 77.5933 88.4011C79.0969 89.2719 80.4939 90.3146 81.7561 91.5079C79.3605 89.5506 75.1106 87.3945 73.9159 86.8104C72.7212 86.2264 71.5576 85.5677 70.3629 84.9961C70.3131 84.9961 70.3567 84.9526 70.3878 84.965Z" fill="#263238"/>
<path id="Vector_524" d="M68.1975 89.2395C69.7531 89.9168 71.3087 90.5257 72.8581 91.2714C74.4074 92.017 75.7639 92.8496 77.2137 93.6947C77.3257 93.763 77.2511 93.8003 77.1391 93.7382C75.6395 92.9552 74.1897 92.3463 72.6776 91.5758C71.1656 90.8053 69.6909 89.9851 68.1602 89.2768L68.1975 89.2395Z" fill="#263238"/>
<path id="Vector_525" d="M65.6525 92.582C68.071 93.5585 70.3815 94.7829 72.5469 96.2356C72.6589 96.304 72.5469 96.3475 72.4412 96.2853C70.1762 95.0426 68.4028 94.0174 65.5965 92.6628C65.5779 92.6317 65.6028 92.582 65.6525 92.582Z" fill="#263238"/>
<path id="Vector_526" d="M48.0431 65.1066L32.6614 62.0433C32.6614 62.0433 43.4946 48.6405 47.7942 45.5959C52.6352 42.1722 53.3259 45.3908 52.4299 50.952C51.5339 56.5132 48.0431 65.1066 48.0431 65.1066Z" fill="#37474F"/>
<path id="Vector_527" d="M48.1802 62.4221C47.6637 62.2356 42.8725 61.2415 41.8271 61.0488C40.7818 60.8562 36.5194 60.0298 35.4243 59.918C35.4144 59.918 35.4049 59.9219 35.3979 59.9289C35.3909 59.9359 35.387 59.9454 35.387 59.9552C35.387 59.9651 35.3909 59.9746 35.3979 59.9816C35.4049 59.9886 35.4144 59.9925 35.4243 59.9925C36.4759 60.3032 40.7756 61.1545 41.8334 61.372C42.8912 61.5894 47.6513 62.4718 48.1864 62.4966C48.2175 62.4966 48.2113 62.4345 48.1802 62.4221Z" fill="#263238"/>
<path id="Vector_528" d="M57.0904 40.9356C53.6992 40.5566 49.6235 43.4584 52.6476 47.3791C55.6717 51.2999 58.87 52.0642 60.662 51.5174C62.7901 50.8526 63.5803 46.5465 63.0514 44.5457C62.5225 42.545 59.9838 41.2587 57.0904 40.9356Z" fill="#455A64"/>
<path id="Vector_529" d="M59.8783 50.0995C58.4596 50.3108 54.2781 47.7197 52.7163 44.9236C52.6105 44.7309 53.3386 36.995 53.3386 35.4478C53.3386 35.1309 63.0828 37.6909 63.0828 37.6909C62.5525 39.6327 62.26 41.6315 62.2117 43.6436C62.2174 43.8525 62.2424 44.0605 62.2863 44.2649C62.2863 44.2649 62.2863 44.3271 62.2863 44.3706C62.4855 45.5884 61.9628 49.7888 59.8783 50.0995Z" fill="#DD6A57"/>
<path id="Vector_530" d="M53.9358 35.4923C54.3278 37.8348 55.9021 44.3902 61.2782 44.4523C61.6114 44.4562 61.9443 44.4333 62.2738 44.384V44.2783C62.2349 44.0733 62.2121 43.8656 62.2053 43.657C62.2497 41.645 62.5401 39.646 63.0703 37.7044C63.0703 37.7044 56.095 35.8651 53.9358 35.4923Z" fill="#263238"/>
<path id="Vector_531" d="M67.5564 20.4543C67.5564 20.4543 70.4934 22.4116 70.4436 25.767C70.3938 29.1223 68.9751 32.3783 68.664 32.4901C68.3529 32.6019 67.5564 20.4543 67.5564 20.4543Z" fill="#263238"/>
<path id="Vector_532" d="M54.2532 22.3691C52.5109 25.5194 52.2309 35.6227 54.1661 38.2945C56.9786 42.1718 62.6036 43.6755 66.1628 40.0716C69.61 36.5734 69.7469 23.4005 67.482 20.8654C64.153 17.131 56.823 17.7213 54.2532 22.3691Z" fill="#DD6A57"/>
<path id="Vector_533" d="M62.5103 30.4086C62.5103 30.4086 62.4543 30.4396 62.4543 30.4707C62.4543 31.148 62.3361 31.9309 61.7139 32.136V32.1732C62.473 32.0925 62.6161 31.0672 62.5103 30.4086Z" fill="#263238"/>
<path id="Vector_534" d="M61.9255 29.6826C60.8303 29.5645 60.681 31.7517 61.689 31.8636C62.6971 31.9754 62.8464 29.782 61.9255 29.6826Z" fill="#263238"/>
<path id="Vector_535" d="M66.2559 30.6329C66.2559 30.6329 66.3119 30.664 66.3057 30.6951C66.2373 31.3724 66.2684 32.1615 66.8657 32.4287C66.8657 32.4287 66.8657 32.4722 66.8657 32.4659C66.119 32.3106 66.0817 31.2605 66.2559 30.6329Z" fill="#263238"/>
<path id="Vector_536" d="M66.9157 29.9677C68.0171 29.9677 67.9424 32.1548 66.9157 32.1611C65.889 32.1673 65.9948 29.9677 66.9157 29.9677Z" fill="#263238"/>
<path id="Vector_537" d="M60.9795 28.949C61.2747 28.8893 61.5657 28.8104 61.8507 28.7129C62.1701 28.6725 62.4675 28.5284 62.6969 28.3028C62.7538 28.2175 62.7809 28.1159 62.7742 28.0137C62.7674 27.9115 62.7272 27.8144 62.6596 27.7373C62.5039 27.603 62.3148 27.5131 62.1122 27.477C61.9096 27.4409 61.7011 27.46 61.5084 27.5323C61.0951 27.6183 60.729 27.8554 60.4817 28.1971C60.4292 28.2774 60.4014 28.3712 60.4016 28.467C60.4019 28.5629 60.4302 28.6565 60.4831 28.7365C60.5361 28.8164 60.6113 28.8791 60.6995 28.9169C60.7877 28.9547 60.885 28.9658 60.9795 28.949Z" fill="#263238"/>
<path id="Vector_538" d="M67.8242 28.4386C67.5329 28.3593 67.2462 28.2638 66.9655 28.1528C66.6519 28.0895 66.3665 27.9285 66.1503 27.693C66.0965 27.6048 66.0739 27.501 66.0863 27.3984C66.0988 27.2958 66.1454 27.2004 66.2188 27.1275C66.3821 27.004 66.5754 26.9262 66.7789 26.9021C66.9823 26.8781 67.1885 26.9087 67.3762 26.9908C67.7827 27.1031 68.1344 27.3593 68.3655 27.7116C68.412 27.7952 68.4334 27.8904 68.427 27.9858C68.4207 28.0813 68.3869 28.1728 68.3298 28.2496C68.2726 28.3263 68.1945 28.385 68.1049 28.4185C68.0152 28.452 67.9177 28.459 67.8242 28.4386Z" fill="#263238"/>
<path id="Vector_539" d="M62.1122 34.5096C62.2638 34.7917 62.4727 35.0392 62.7256 35.2361C62.9784 35.4329 63.2697 35.5749 63.5807 35.6529C63.8532 35.7214 64.1336 35.7527 64.4145 35.7461C64.4662 35.7526 64.5184 35.7526 64.5701 35.7461H64.7256C64.7614 35.7401 64.7944 35.7231 64.8201 35.6975C64.8458 35.6719 64.8628 35.6389 64.8687 35.6031C64.8719 35.5784 64.8719 35.5533 64.8687 35.5286V35.4664C64.9185 34.9445 64.9247 34.1429 64.9247 34.1429C65.1114 34.2548 66.051 34.7643 66.0572 34.4909C66.164 32.1306 66.0306 29.7656 65.659 27.4323C65.659 27.4158 65.6524 27.4 65.6408 27.3883C65.6291 27.3767 65.6133 27.3701 65.5968 27.3701C65.5803 27.3701 65.5644 27.3767 65.5528 27.3883C65.5411 27.4 65.5345 27.4158 65.5345 27.4323C65.4225 29.6132 65.6963 31.7818 65.6154 33.9876C65.28 33.8023 64.9195 33.6663 64.5452 33.5837C64.4705 33.5837 64.5452 35.1247 64.5452 35.3546C64.1137 35.3676 63.684 35.2933 63.282 35.1364C62.88 34.9794 62.5138 34.743 62.2056 34.4412C62.1309 34.4101 62.0749 34.4536 62.1122 34.5096Z" fill="#263238"/>
<path id="Vector_540" d="M64.122 35.4611C63.8081 35.8121 63.4098 36.0773 62.9646 36.2316C62.7177 36.3105 62.4523 36.3105 62.2055 36.2316C61.6766 36.0514 61.6952 35.5543 61.8259 35.138C61.8986 34.9201 61.9967 34.7115 62.1184 34.5166C62.6683 35.0366 63.3704 35.3676 64.122 35.4611Z" fill="#263238"/>
<path id="Vector_541" d="M62.9646 36.2309C62.7177 36.3099 62.4523 36.3099 62.2055 36.2309C61.6766 36.0507 61.6952 35.5536 61.8259 35.1373C62.1108 35.1664 62.3777 35.2899 62.584 35.4881C62.7904 35.6863 62.9244 35.9478 62.9646 36.2309Z" fill="#FF9CBD"/>
<path id="Vector_542" d="M53.0523 31.8754C54.2595 32.2793 55.7404 28.6568 56.1635 27.265C56.5431 26.0222 57.0347 22.1201 57.0969 21.8529C57.1591 21.5857 62.3175 25.4444 65.4038 24.618C68.4901 23.7915 70.5995 21.0886 70.6679 19.8086C70.7364 18.5286 67.0092 15.1919 63.7175 14.9496C60.4259 14.7073 55.8773 18.7896 55.8773 18.7896C56.4303 18.1896 56.9359 17.5477 57.3893 16.8696C57.3396 16.7205 55.1928 17.522 54.7697 19.0257C54.7697 19.0257 55.2302 17.1616 55.0684 17.0933C54.9066 17.0249 53.2017 18.6467 53.5688 19.8894C53.5688 19.8894 51.615 21.4987 51.3972 23.3069C51.1794 25.115 51.6461 31.4094 53.0523 31.8754Z" fill="#263238"/>
<path id="Vector_543" d="M67.5941 24.027C66.6752 24.4938 65.6916 24.8205 64.6758 24.9964C63.5444 25.0588 62.4147 24.8456 61.3842 24.375C60.3417 23.9417 59.377 23.3415 58.5281 22.5979C57.7752 21.9765 57.1094 21.175 56.3067 20.5971C56.1076 20.448 55.8587 20.74 55.9831 20.9265C57.3044 22.8822 59.2227 24.3598 61.4526 25.1393C62.4865 25.5029 63.5972 25.5922 64.6759 25.3983C65.7547 25.2044 66.7645 24.734 67.6065 24.0333C67.6065 24.0333 67.6128 24.0208 67.5941 24.027Z" fill="#263238"/>
<path id="Vector_544" d="M60.6497 34.0252C60.0936 33.9346 59.5741 33.69 59.1503 33.3193C58.7264 32.9485 58.4153 32.4665 58.2521 31.928C58.0889 31.3894 58.0803 30.816 58.2273 30.2728C58.3742 29.7296 58.6708 29.2385 59.0833 28.8552C59.4958 28.472 60.0077 28.212 60.5609 28.1048C61.114 27.9976 61.6861 28.0475 62.2123 28.2488C62.7384 28.4501 63.1975 28.7948 63.5372 29.2436C63.877 29.6925 64.0838 30.2275 64.1342 30.7879C64.1741 31.2444 64.1092 31.704 63.9444 32.1317C63.7796 32.5594 63.5194 32.9439 63.1834 33.256C62.8474 33.5682 62.4446 33.7997 62.0056 33.933C61.5665 34.0663 61.1028 34.0978 60.6497 34.0252ZM61.5519 28.4827C61.3452 28.4596 61.1365 28.4596 60.9297 28.4827C60.2666 28.5619 59.6589 28.8909 59.2307 29.4026C58.8025 29.9143 58.5861 30.57 58.6258 31.2357C58.6656 31.9014 58.9584 32.5268 59.4444 32.984C59.9304 33.4413 60.573 33.696 61.2408 33.696C61.9086 33.696 62.5512 33.4413 63.0372 32.984C63.5233 32.5268 63.8161 31.9014 63.8558 31.2357C63.8955 30.57 63.6792 29.9143 63.251 29.4026C62.8228 28.8909 62.215 28.5619 61.5519 28.4827Z" fill="#1A73E8"/>
<path id="Vector_545" d="M67.5568 34.2918C66.4181 34.1054 65.578 32.7757 65.6465 31.185C65.6667 30.4344 65.9212 29.7088 66.3745 29.1097C66.5519 28.8384 66.797 28.618 67.0856 28.4701C67.3743 28.3222 67.6966 28.2521 68.0207 28.2665C68.3448 28.2809 68.6596 28.3795 68.9339 28.5524C69.2083 28.7253 69.4328 28.9666 69.5853 29.2526C69.9847 29.8866 70.1741 30.6301 70.1266 31.3776C70.0519 33.0367 68.9879 34.3415 67.7559 34.2856C67.6874 34.3105 67.6252 34.298 67.5568 34.2918ZM68.179 28.6996H68.0234C67.7671 28.6992 67.5145 28.7605 67.287 28.8784C67.0595 28.9963 66.8639 29.1673 66.7167 29.3769C66.3179 29.9173 66.1002 30.5696 66.0945 31.2409C66.0323 32.6701 66.7976 33.8755 67.8181 33.919C68.8386 33.9625 69.6848 32.8316 69.7657 31.4336C69.8032 30.7785 69.6381 30.1277 69.2928 29.5695C69.1772 29.3528 69.0153 29.1642 68.8185 29.017C68.6217 28.8699 68.3949 28.7679 68.1541 28.7182L68.179 28.6996Z" fill="#1A73E8"/>
<path id="Vector_546" d="M64.0161 31.1366L63.7734 30.8135C64.2463 30.4531 65.3228 29.9808 66.0259 30.8135L65.7148 31.0744C65.0926 30.3288 64.0908 31.0993 64.0161 31.1366Z" fill="#1A73E8"/>
<path id="Vector_547" d="M51.1671 31.4533L50.8186 31.2545C50.9119 31.0929 51.7582 29.6638 52.6853 29.5582C53.6125 29.4526 58.2855 30.0615 58.5344 30.0988L58.4784 30.4964C56.5736 30.2083 54.654 30.0278 52.7289 29.9559C52.1129 30.0242 51.3973 31.0681 51.1671 31.4533Z" fill="#1A73E8"/>
<path id="Vector_548" d="M54.6578 30.7389C54.6578 30.7389 53.0462 27.1599 51.4595 27.6756C49.8728 28.1913 50.663 33.0814 52.2311 34.0259C52.4236 34.1644 52.6425 34.2622 52.8743 34.3133C53.106 34.3643 53.3458 34.3675 53.5789 34.3227C53.8119 34.2779 54.0334 34.1861 54.2296 34.0527C54.4258 33.9194 54.5927 33.7475 54.72 33.5474L54.6578 30.7389Z" fill="#DD6A57"/>
<path id="Vector_549" d="M51.7205 29.0668C51.7205 29.0668 51.6831 29.0668 51.7205 29.1103C52.8156 29.8124 53.2263 31.0241 53.4441 32.2171C53.3991 32.0832 53.3251 31.9609 53.2272 31.859C53.1294 31.7571 53.0102 31.6781 52.8781 31.6276C52.7461 31.5771 52.6045 31.5564 52.4635 31.567C52.3225 31.5776 52.1857 31.6193 52.0627 31.6889C52.0528 31.6889 52.0433 31.6928 52.0363 31.6998C52.0293 31.7068 52.0253 31.7163 52.0253 31.7262C52.0253 31.7361 52.0293 31.7456 52.0363 31.7526C52.0433 31.7595 52.0528 31.7635 52.0627 31.7635C52.2824 31.7364 52.5051 31.7781 52.7001 31.8827C52.8951 31.9873 53.0529 32.1497 53.1516 32.3476C53.3157 32.6807 53.443 33.0307 53.5312 33.3914C53.5312 33.5095 53.7676 33.4846 53.7489 33.3604C54.0787 31.8567 53.3072 29.5266 51.7205 29.0668Z" fill="#263238"/>
</g>
<g id="Speech Bubble">
<path id="Vector_550" d="M108.27 22.1451C107.999 24.7353 107.013 27.1994 105.421 29.2624C103.83 31.3253 101.695 32.9059 99.2559 33.8276C96.8168 34.7493 94.1691 34.9758 91.6085 34.4819C89.0479 33.988 86.6752 32.7931 84.7553 31.0306L77.7178 32.0682L81.2396 25.9851C80.4312 24.0063 80.0852 21.8693 80.2282 19.7369C80.3711 17.6045 80.9992 15.5327 82.0646 13.6791C83.13 11.8255 84.6046 10.2389 86.3764 9.04007C88.1482 7.8412 90.1705 7.06162 92.2894 6.7606C94.4083 6.45958 96.568 6.64505 98.6043 7.30292C100.641 7.96079 102.5 9.07371 104.041 10.5571C105.581 12.0404 106.763 13.8551 107.496 15.8631C108.229 17.8711 108.493 20.0196 108.27 22.1451Z" fill="white"/>
<path id="Vector_551" d="M108.27 22.1453C107.992 24.7372 107.002 27.2019 105.407 29.2661C105.016 29.7831 104.59 30.273 104.132 30.7325C103.663 31.1783 103.167 31.5935 102.645 31.9752C100.558 33.5602 98.0727 34.5367 95.464 34.7962C94.8126 34.8583 94.1573 34.8708 93.504 34.8335C92.8505 34.8199 92.1991 34.7534 91.5564 34.6346C88.9705 34.1447 86.5712 32.9489 84.6246 31.1799L84.7926 31.2358L77.7302 32.3107L77.22 32.3915L77.4751 31.9379L80.9783 25.8486V26.0909C80.1528 24.0758 79.8021 21.8983 79.9532 19.7263C80.1042 17.5544 80.753 15.4461 81.8494 13.5643C82.9446 11.6903 84.4508 10.0885 86.2549 8.87923C88.4985 7.38714 91.1209 6.56302 93.8159 6.50304C96.5109 6.44306 99.1673 7.14969 101.475 8.54048C103.783 9.93127 105.648 11.9488 106.851 14.3578C108.054 16.7667 108.546 19.4676 108.27 22.1453ZM108.27 22.1453C108.493 20.029 108.227 17.8898 107.493 15.8921C106.758 13.8945 105.575 12.0918 104.033 10.6226C102.492 9.15337 100.633 8.05689 98.6007 7.41749C96.5681 6.77809 94.4158 6.61281 92.3093 6.93437C90.2203 7.24569 88.2302 8.02996 86.4913 9.22719C84.7728 10.433 83.3375 11.9977 82.285 13.8128C81.244 15.6333 80.6332 17.6672 80.4992 19.7593C80.3647 21.8497 80.7029 23.9436 81.4885 25.8859L81.5383 26.0101L81.4699 26.122L77.9293 32.1927L77.6742 31.8199L84.7242 30.8319H84.8175L84.8922 30.9002C86.7711 32.6592 89.1054 33.858 91.631 34.3612C92.258 34.4926 92.8949 34.5715 93.5351 34.5973C94.1772 34.644 94.8219 34.644 95.464 34.5973C96.7411 34.4977 97.9978 34.2195 99.1975 33.7709C100.415 33.3356 101.561 32.7197 102.595 31.9441C103.114 31.5609 103.608 31.1458 104.076 30.7014C104.534 30.2449 104.962 29.7592 105.358 29.2474C106.968 27.195 107.976 24.7363 108.27 22.1453Z" fill="#263238"/>
<path id="Vector_552" d="M92.6017 28.7005L86.5908 22.6236L88.6131 20.629L92.1225 24.177L99.4152 12.7563L101.811 14.2787L92.6017 28.7005Z" fill="#1A73E8"/>
</g>
</g>
</svg>
